<svg xmlns="http://www.w3.org/2000/svg" xmlns:xlink="http://www.w3.org/1999/xlink" width="500" zoomAndPan="magnify" viewBox="0 0 375 374.999991" height="500" preserveAspectRatio="xMidYMid meet" version="1.0"><defs><clipPath id="853e4190b8"><path d="M 137 14.765625 L 238 14.765625 L 238 115 L 137 115 Z M 137 14.765625 " clip-rule="nonzero"/></clipPath><clipPath id="a05f4ba8c2"><path d="M 0 149 L 375 149 L 375 360.515625 L 0 360.515625 Z M 0 149 " clip-rule="nonzero"/></clipPath></defs><g clip-path="url(#853e4190b8)"><path fill="#ffffff" d="M 187.5 114.308594 C 215.019531 114.308594 237.269531 92.058594 237.269531 64.535156 C 237.269531 37.015625 215.019531 14.765625 187.5 14.765625 C 159.980469 14.765625 137.730469 37.015625 137.730469 64.535156 C 137.730469 92.058594 159.980469 114.308594 187.5 114.308594 Z M 187.5 26.476562 C 208.578125 26.476562 225.558594 43.457031 225.558594 64.535156 C 225.558594 85.617188 208.578125 102.597656 187.5 102.597656 C 166.421875 102.597656 149.441406 85.617188 149.441406 64.535156 C 149.441406 43.457031 166.421875 26.476562 187.5 26.476562 Z M 187.5 26.476562 " fill-opacity="1" fill-rule="nonzero"/></g><g clip-path="url(#a05f4ba8c2)"><path fill="#ffffff" d="M 370.773438 195.699219 L 319.832031 152.367188 C 317.78125 150.609375 314.855469 149.441406 312.21875 149.441406 C 310.464844 149.441406 309 149.734375 307.242188 150.609375 C 303.144531 152.660156 300.507812 156.757812 300.507812 161.152344 L 300.507812 182.816406 C 255.421875 188.671875 217.070312 210.921875 191.890625 245.175781 C 191.597656 245.46875 189.84375 247.519531 187.5 251.03125 C 162.320312 212.972656 122.503906 188.671875 74.492188 182.523438 L 74.492188 161.152344 C 74.492188 156.464844 71.855469 152.367188 67.757812 150.609375 C 66.292969 149.734375 64.535156 149.441406 62.78125 149.441406 C 60.144531 149.441406 57.21875 150.316406 55.167969 152.367188 L 4.226562 195.699219 C 1.589844 198.039062 0.128906 201.261719 0.128906 204.480469 L 0.128906 207.410156 C 0.128906 210.921875 1.589844 214.140625 4.226562 216.191406 L 55.167969 259.8125 C 57.21875 261.570312 60.144531 262.742188 62.78125 262.742188 C 64.535156 262.742188 66 262.449219 67.757812 261.570312 C 71.855469 259.519531 74.492188 255.421875 74.492188 251.03125 L 74.492188 233.171875 C 126.898438 243.417969 157.636719 285.578125 157.636719 348.523438 C 157.636719 349.695312 158.222656 353.5 158.222656 354.378906 C 158.222656 357.597656 160.859375 360.234375 164.078125 360.234375 C 164.957031 360.234375 205.652344 360.234375 205.652344 360.234375 C 212.09375 360.234375 217.363281 354.964844 217.363281 348.523438 C 217.363281 285.871094 248.101562 243.417969 300.507812 233.171875 L 300.507812 251.03125 C 300.507812 255.714844 303.144531 259.8125 307.242188 261.570312 C 308.707031 262.15625 310.464844 262.742188 312.21875 262.742188 C 314.855469 262.742188 317.78125 261.863281 319.832031 259.8125 L 370.773438 216.191406 C 373.410156 213.847656 374.871094 210.628906 374.871094 207.410156 L 374.871094 204.480469 C 374.871094 201.261719 373.410156 198.039062 370.773438 195.699219 Z M 62.78125 219.703125 L 62.78125 251.03125 L 11.839844 207.699219 L 11.839844 204.773438 L 62.78125 161.152344 L 62.78125 193.355469 C 112.257812 196.867188 155.296875 221.460938 180.765625 262.449219 C 175.203125 272.695312 168.761719 287.042969 164.371094 305.484375 C 150.316406 252.789062 110.792969 224.097656 62.78125 219.703125 Z M 363.160156 207.699219 L 312.21875 251.324219 L 312.21875 219.703125 C 252.496094 225.265625 205.652344 268.304688 205.652344 348.523438 L 169.933594 348.523438 C 171.398438 309 184.28125 279.722656 193.0625 264.792969 C 218.242188 222.339844 261.863281 197.160156 312.21875 193.355469 L 312.21875 161.152344 L 363.160156 204.773438 Z M 363.160156 207.699219 " fill-opacity="1" fill-rule="nonzero"/></g><path fill="#ffffff" d="M 184.863281 202.429688 C 180.179688 202.429688 177.253906 204.773438 177.253906 209.75 C 177.253906 214.433594 179.886719 216.777344 184.863281 216.777344 C 189.84375 216.777344 192.183594 214.433594 192.183594 209.75 C 192.183594 204.773438 189.84375 202.429688 184.863281 202.429688 Z M 184.863281 202.429688 " fill-opacity="1" fill-rule="nonzero"/><path fill="#ffffff" d="M 210.921875 159.6875 C 210.921875 147.390625 202.136719 140.65625 187.207031 140.65625 C 172.570312 140.65625 164.078125 147.976562 164.078125 160.566406 C 164.078125 163.785156 167.007812 166.714844 170.226562 166.714844 C 173.738281 166.714844 176.375 164.078125 176.375 160.566406 C 176.375 154.417969 180.765625 151.488281 186.914062 151.488281 C 194.234375 151.488281 198.332031 154.417969 198.332031 159.980469 C 198.332031 171.691406 176.375 172.570312 176.375 186.328125 C 176.375 189.257812 177.546875 192.769531 180.472656 195.699219 C 181.644531 196.867188 183.109375 197.453125 184.863281 197.453125 C 187.792969 197.453125 191.011719 195.40625 191.011719 191.597656 C 191.011719 190.425781 190.71875 189.257812 190.136719 188.378906 C 189.257812 187.207031 188.964844 186.621094 188.964844 185.742188 C 189.257812 178.71875 210.921875 177.546875 210.921875 159.6875 Z M 210.921875 159.6875 " fill-opacity="1" fill-rule="nonzero"/><path fill="#ffffff" d="M 105.523438 152.660156 C 105.523438 128.359375 126.605469 114.015625 148.269531 111.671875 C 144.753906 108.746094 141.535156 105.230469 138.605469 101.425781 C 114.601562 107.28125 93.8125 125.433594 93.8125 152.660156 L 93.8125 174.324219 C 97.914062 175.203125 101.71875 176.375 105.523438 177.546875 Z M 105.523438 152.660156 " fill-opacity="1" fill-rule="nonzero"/><path fill="#ffffff" d="M 226.730469 111.671875 C 248.394531 114.015625 269.476562 128.066406 269.476562 152.660156 L 269.476562 177.546875 C 273.28125 176.375 277.085938 175.203125 281.1875 174.324219 L 281.1875 152.660156 C 281.1875 125.433594 260.398438 107.28125 236.394531 101.71875 C 233.757812 105.230469 230.539062 108.746094 226.730469 111.671875 Z M 226.730469 111.671875 " fill-opacity="1" fill-rule="nonzero"/></svg>