<svg xmlns="http://www.w3.org/2000/svg" xmlns:xlink="http://www.w3.org/1999/xlink" width="500" zoomAndPan="magnify" viewBox="0 0 375 374.999991" height="500" preserveAspectRatio="xMidYMid meet" version="1.0"><path fill="#ffffff" d="M 248.429688 198.304688 C 235.589844 198.304688 229.144531 213.863281 238.226562 222.945312 C 239.898438 224.617188 239.898438 227.328125 238.226562 229.003906 L 229.003906 238.226562 C 227.332031 239.898438 224.617188 239.898438 222.945312 238.226562 C 213.863281 229.144531 198.304688 235.589844 198.304688 248.429688 C 198.304688 250.796875 196.386719 252.714844 194.023438 252.714844 L 180.980469 252.714844 C 178.613281 252.714844 176.695312 250.796875 176.695312 248.429688 C 176.695312 235.574219 161.148438 229.132812 152.058594 238.226562 C 150.382812 239.898438 147.671875 239.898438 146 238.226562 L 136.777344 229.003906 C 135.101562 227.328125 135.101562 224.617188 136.777344 222.945312 C 145.855469 213.863281 139.414062 198.304688 126.570312 198.304688 C 124.203125 198.304688 122.285156 196.386719 122.285156 194.019531 L 122.285156 180.980469 C 122.285156 178.613281 124.203125 176.695312 126.570312 176.695312 C 139.414062 176.695312 145.855469 161.136719 136.777344 152.054688 C 135.101562 150.382812 135.101562 147.671875 136.777344 145.996094 L 146 136.773438 C 147.671875 135.101562 150.382812 135.101562 152.058594 136.773438 C 161.136719 145.855469 176.695312 139.410156 176.695312 126.570312 C 176.695312 124.203125 178.613281 122.285156 180.980469 122.285156 L 194.023438 122.285156 C 196.386719 122.285156 198.304688 124.203125 198.304688 126.570312 C 198.304688 139.410156 213.863281 145.855469 222.945312 136.773438 C 224.617188 135.101562 227.332031 135.101562 229.003906 136.773438 L 238.226562 145.996094 C 239.898438 147.671875 239.898438 150.382812 238.226562 152.054688 C 229.144531 161.136719 235.589844 176.695312 248.429688 176.695312 C 250.796875 176.695312 252.714844 178.613281 252.714844 180.980469 L 252.714844 194.019531 C 252.714844 196.386719 250.796875 198.304688 248.429688 198.304688 Z M 325.027344 241.625 C 311.765625 275.304688 286.421875 303.070312 254.148438 319.410156 L 259.125 302.523438 C 259.976562 299.632812 258.320312 296.601562 255.429688 295.75 C 252.539062 294.902344 249.507812 296.554688 248.660156 299.445312 L 240.304688 327.800781 C 239.476562 330.613281 241.015625 333.566406 243.765625 334.507812 L 271.710938 344.140625 C 274.5625 345.121094 277.671875 343.601562 278.652344 340.746094 C 279.632812 337.890625 278.109375 334.78125 275.253906 333.800781 L 260.144531 328.59375 C 294.304688 310.972656 321.105469 281.386719 335.195312 245.597656 C 336.292969 242.789062 334.90625 239.625 332.097656 238.527344 C 329.289062 237.429688 326.125 238.816406 325.027344 241.625 Z M 241.625 49.972656 C 275.304688 63.234375 303.070312 88.578125 319.410156 120.851562 L 302.523438 115.871094 C 299.632812 115.023438 296.601562 116.679688 295.75 119.566406 C 294.902344 122.457031 296.554688 125.492188 299.445312 126.339844 L 327.800781 134.695312 C 330.613281 135.523438 333.566406 133.980469 334.507812 131.234375 L 344.140625 103.289062 C 345.121094 100.433594 343.601562 97.328125 340.746094 96.347656 C 337.890625 95.367188 334.78125 96.886719 333.800781 99.742188 L 328.59375 114.855469 C 310.972656 80.695312 281.386719 53.894531 245.597656 39.804688 C 242.789062 38.707031 239.625 40.09375 238.527344 42.902344 C 237.429688 45.710938 238.816406 48.875 241.625 49.972656 Z M 49.972656 133.375 C 63.234375 99.695312 88.578125 71.929688 120.851562 55.589844 L 115.875 72.476562 C 115.023438 75.367188 116.679688 78.398438 119.570312 79.25 C 122.460938 80.097656 125.492188 78.445312 126.339844 75.554688 L 134.695312 47.199219 C 135.523438 44.386719 133.980469 41.433594 131.234375 40.492188 L 103.289062 30.859375 C 100.4375 29.878906 97.328125 31.398438 96.347656 34.253906 C 95.367188 37.109375 96.890625 40.21875 99.746094 41.199219 L 114.855469 46.40625 C 80.695312 64.027344 53.894531 93.613281 39.804688 129.402344 C 38.707031 132.210938 40.09375 135.375 42.902344 136.472656 C 45.710938 137.570312 48.875 136.183594 49.972656 133.375 Z M 133.375 325.027344 C 99.695312 311.765625 71.929688 286.421875 55.589844 254.148438 L 72.476562 259.125 C 75.367188 259.976562 78.398438 258.320312 79.25 255.429688 C 80.097656 252.539062 78.445312 249.507812 75.554688 248.660156 L 47.199219 240.304688 C 44.386719 239.476562 41.433594 241.015625 40.492188 243.765625 L 30.859375 271.710938 C 29.878906 274.5625 31.398438 277.671875 34.253906 278.652344 C 37.109375 279.632812 40.21875 278.109375 41.199219 275.253906 L 46.40625 260.144531 C 64.027344 294.304688 93.613281 321.105469 129.402344 335.195312 C 132.210938 336.292969 135.375 334.90625 136.472656 332.097656 C 137.570312 329.289062 136.183594 326.125 133.375 325.027344 Z M 340.625 147.808594 L 375 167.652344 L 375 207.347656 L 340.625 227.191406 L 306.25 207.347656 L 306.25 167.652344 Z M 39.691406 153.125 L 79.386719 221.875 L 0 221.875 Z M 187.5 306.25 C 206.484375 306.25 221.875 321.640625 221.875 340.625 C 221.875 359.609375 206.484375 375 187.5 375 C 168.515625 375 153.125 359.609375 153.125 340.625 C 153.125 321.640625 168.515625 306.25 187.5 306.25 Z M 153.125 0 L 221.875 0 L 221.875 68.75 L 153.125 68.75 Z M 187.5 155.628906 C 169.898438 155.628906 155.628906 169.898438 155.628906 187.5 C 155.628906 205.101562 169.898438 219.371094 187.5 219.371094 C 205.101562 219.371094 219.371094 205.101562 219.371094 187.5 C 219.371094 169.898438 205.101562 155.628906 187.5 155.628906 Z M 187.5 155.628906 " fill-opacity="1" fill-rule="evenodd"/></svg>