<svg xmlns="http://www.w3.org/2000/svg" xmlns:xlink="http://www.w3.org/1999/xlink" width="500" zoomAndPan="magnify" viewBox="0 0 375 374.999991" height="500" preserveAspectRatio="xMidYMid meet" version="1.0"><defs><clipPath id="cc62dca93d"><path d="M 207.492188 198.195312 L 374.929688 198.195312 L 374.929688 337.304688 L 207.492188 337.304688 Z M 207.492188 198.195312 " clip-rule="nonzero"/></clipPath><clipPath id="e075e2c0f9"><path d="M 72.664062 199 L 189 199 L 189 375 L 72.664062 375 Z M 72.664062 199 " clip-rule="nonzero"/></clipPath></defs><path fill="#ffffff" d="M 179.796875 181.707031 C 182.152344 181.117188 181.671875 177.640625 179.246094 177.707031 L 109.101562 174.058594 C 108.75 173.441406 108.371094 172.832031 107.960938 172.230469 L 88.222656 143.421875 L 58.859375 100.5625 C 57.484375 98.558594 54.390625 100.214844 55.296875 102.46875 C 55.296875 102.46875 92.636719 160.191406 69.074219 185.683594 C 56.851562 198.902344 2.410156 212.933594 2.410156 212.933594 C 0.0859375 213.640625 0.738281 217.089844 3.160156 216.902344 C 17.4375 215.800781 31.722656 214.761719 46.011719 213.765625 C 59.875 212.800781 74.851562 213.371094 88.316406 209.878906 C 89.539062 209.5625 90.753906 209.214844 91.960938 208.832031 C 98.753906 206.679688 105.128906 203.46875 111.558594 200.441406 C 117.875 197.46875 123.558594 195.832031 130.234375 194.1875 C 137.261719 192.457031 144.277344 190.652344 151.300781 188.882812 C 160.796875 186.492188 170.296875 184.101562 179.796875 181.707031 " fill-opacity="1" fill-rule="nonzero"/><path fill="#ffffff" d="M 111.089844 143.164062 C 106.332031 153.105469 109.75 164.648438 118.726562 168.945312 C 127.699219 173.242188 138.835938 168.664062 143.597656 158.726562 C 148.355469 148.785156 144.9375 137.238281 135.960938 132.941406 C 126.984375 128.644531 115.847656 133.222656 111.089844 143.164062 " fill-opacity="1" fill-rule="nonzero"/><path fill="#ffffff" d="M 195.484375 166.945312 C 196.777344 169 199.933594 167.46875 199.121094 165.183594 L 180.914062 97.347656 C 181.394531 96.820312 181.859375 96.273438 182.300781 95.695312 L 203.601562 68.023438 L 235.289062 26.851562 C 236.769531 24.925781 234.238281 22.496094 232.375 24.050781 C 232.375 24.050781 189.015625 77.402344 157.492188 62.867188 C 141.140625 55.332031 110.972656 7.890625 110.972656 7.890625 C 109.582031 5.902344 106.503906 7.585938 107.429688 9.828125 C 112.890625 23.070312 118.292969 36.335938 123.652344 49.613281 C 128.855469 62.503906 132.941406 76.921875 140.421875 88.648438 C 141.101562 89.714844 141.808594 90.761719 142.546875 91.789062 C 146.691406 97.585938 151.71875 102.65625 156.582031 107.835938 C 161.363281 112.921875 164.675781 117.824219 168.300781 123.664062 C 172.121094 129.816406 176.003906 135.929688 179.855469 142.058594 C 185.066406 150.355469 190.277344 158.652344 195.484375 166.945312 " fill-opacity="1" fill-rule="nonzero"/><path fill="#ffffff" d="M 210.914062 89.691406 C 199.988281 88.234375 190.066406 95.054688 188.753906 104.917969 C 187.4375 114.785156 195.230469 123.960938 206.15625 125.414062 C 217.085938 126.867188 227.003906 120.050781 228.320312 110.1875 C 229.632812 100.320312 221.839844 91.144531 210.914062 89.691406 " fill-opacity="1" fill-rule="nonzero"/><path fill="#ffffff" d="M 214.375 177.304688 C 212.820312 179.167969 215.25 181.699219 217.171875 180.21875 L 276.066406 141.9375 C 276.710938 142.234375 277.375 142.507812 278.0625 142.75 L 310.960938 154.453125 L 359.910156 171.867188 C 362.195312 172.679688 363.726562 169.523438 361.671875 168.234375 C 361.671875 168.234375 297.535156 143.480469 301.617188 109.007812 C 303.730469 91.128906 339.527344 47.777344 339.527344 47.777344 C 340.992188 45.839844 338.4375 43.433594 336.589844 45.007812 C 325.6875 54.292969 314.738281 63.527344 303.765625 72.730469 C 293.113281 81.664062 280.664062 90.003906 271.824219 100.742188 C 271.019531 101.71875 270.242188 102.714844 269.492188 103.730469 C 265.261719 109.464844 261.992188 115.8125 258.570312 122.039062 C 255.207031 128.160156 251.570312 132.824219 247.136719 138.078125 C 242.464844 143.609375 237.851562 149.191406 233.210938 154.75 C 226.933594 162.269531 220.652344 169.789062 214.375 177.304688 " fill-opacity="1" fill-rule="nonzero"/><path fill="#ffffff" d="M 292.613281 168.105469 C 290.621094 157.265625 281.070312 149.933594 271.285156 151.734375 C 261.496094 153.53125 255.175781 163.78125 257.171875 174.621094 C 259.164062 185.460938 268.714844 192.792969 278.5 190.992188 C 288.289062 189.191406 294.609375 178.945312 292.613281 168.105469 " fill-opacity="1" fill-rule="nonzero"/><g clip-path="url(#cc62dca93d)"><path fill="#ffffff" d="M 210.359375 198.46875 C 208.105469 197.566406 206.449219 200.660156 208.453125 202.03125 L 263.058594 246.214844 C 262.976562 246.917969 262.921875 247.632812 262.902344 248.363281 L 261.9375 283.269531 L 260.503906 335.203125 C 260.4375 337.628906 263.910156 338.109375 264.503906 335.757812 C 264.503906 335.757812 268.226562 267.109375 302.273438 260.335938 C 319.929688 256.824219 372.21875 277.472656 372.21875 277.472656 C 374.515625 278.265625 376.015625 275.09375 373.945312 273.820312 C 361.746094 266.320312 349.582031 258.765625 337.4375 251.171875 C 325.652344 243.800781 313.871094 234.539062 300.925781 229.449219 C 299.75 228.988281 298.5625 228.550781 297.363281 228.152344 C 290.601562 225.902344 283.554688 224.753906 276.578125 223.425781 C 269.71875 222.117188 264.15625 220.097656 257.792969 217.507812 C 251.085938 214.773438 244.351562 212.113281 237.628906 209.414062 C 228.539062 205.765625 219.449219 202.121094 210.359375 198.46875 " fill-opacity="1" fill-rule="nonzero"/></g><path fill="#ffffff" d="M 243.285156 270.039062 C 252.980469 264.792969 257 253.445312 252.265625 244.691406 C 247.527344 235.941406 235.828125 233.097656 226.136719 238.34375 C 216.441406 243.589844 212.421875 254.933594 217.15625 263.6875 C 221.894531 272.441406 233.59375 275.285156 243.285156 270.039062 " fill-opacity="1" fill-rule="nonzero"/><g clip-path="url(#e075e2c0f9)"><path fill="#ffffff" d="M 188.988281 201.191406 C 189.152344 198.769531 185.699219 198.152344 185.011719 200.480469 L 159.867188 266.0625 C 159.171875 266.207031 158.472656 266.375 157.773438 266.582031 L 124.277344 276.449219 L 74.441406 291.136719 C 72.113281 291.820312 72.730469 295.273438 75.152344 295.109375 C 75.152344 295.109375 141.589844 277.4375 158.550781 307.722656 C 167.347656 323.433594 163.871094 379.546875 163.871094 379.546875 C 163.828125 381.972656 167.304688 382.417969 167.878906 380.058594 C 171.238281 366.136719 174.667969 352.230469 178.136719 338.335938 C 181.503906 324.851562 186.671875 310.785156 187.511719 296.902344 C 187.589844 295.636719 187.632812 294.375 187.644531 293.109375 C 187.695312 285.984375 186.609375 278.929688 185.71875 271.878906 C 184.839844 264.953125 185.042969 259.042969 185.539062 252.183594 C 186.066406 244.964844 186.515625 237.734375 187.007812 230.511719 C 187.667969 220.738281 188.328125 210.964844 188.988281 201.191406 " fill-opacity="1" fill-rule="nonzero"/></g><path fill="#ffffff" d="M 131.097656 254.625 C 139.082031 262.222656 151.117188 262.539062 157.976562 255.328125 C 164.835938 248.121094 163.925781 236.117188 155.945312 228.519531 C 147.957031 220.917969 135.925781 220.605469 129.0625 227.8125 C 122.203125 235.019531 123.113281 247.023438 131.097656 254.625 " fill-opacity="1" fill-rule="nonzero"/></svg>