<svg xmlns="http://www.w3.org/2000/svg" xmlns:xlink="http://www.w3.org/1999/xlink" width="500" zoomAndPan="magnify" viewBox="0 0 375 374.999991" height="500" preserveAspectRatio="xMidYMid meet" version="1.0"><defs><g/><clipPath id="10676959ab"><path d="M 18.757812 129.089844 L 356.242188 129.089844 L 356.242188 233.902344 L 18.757812 233.902344 Z M 18.757812 129.089844 " clip-rule="nonzero"/></clipPath><clipPath id="c5202429f6"><path d="M 57.050781 221.089844 L 317.949219 221.089844 L 317.949219 245.910156 L 57.050781 245.910156 Z M 57.050781 221.089844 " clip-rule="nonzero"/></clipPath></defs><g clip-path="url(#10676959ab)"><path stroke-linecap="butt" transform="matrix(0.75, 0, 0, 0.75, 18.759267, 129.09087)" fill="none" stroke-linejoin="miter" d="M -0.00193873 -0.00136823 L 449.977257 -0.00136823 L 449.977257 139.748641 L -0.00193873 139.748641 Z M -0.00193873 -0.00136823 " stroke="#ffffff" stroke-width="2" stroke-opacity="1" stroke-miterlimit="4"/></g><g fill="#ffffff" fill-opacity="1"><g transform="translate(28.197241, 191.565866)"><g><path d="M 16.066406 -8.191406 L 5.894531 -8.191406 L 6.523438 -10.621094 L 15.34375 -10.621094 Z M 11.203125 -21.328125 L 3.824219 0 L 0.71875 0 L 11.070312 -28.53125 L 11.429688 -28.53125 L 21.78125 0 L 18.539062 0 Z M 11.203125 -21.328125 "/></g></g></g><g fill="#ffffff" fill-opacity="1"><g transform="translate(49.347217, 191.565866)"><g><path d="M 3.554688 0 L 3.554688 -2.609375 L 9.628906 -2.609375 L 9.628906 -27.316406 L 3.824219 -27.316406 L 3.824219 -29.925781 L 12.914062 -29.925781 L 12.914062 -2.609375 L 18.945312 -2.609375 L 18.945312 0 Z M 3.554688 0 "/></g></g></g><g fill="#ffffff" fill-opacity="1"><g transform="translate(70.497194, 191.565866)"><g><path d="M 12.238281 0.449219 C 10.738281 0.449219 9.375 0.21875 8.144531 -0.246094 C 6.914062 -0.710938 5.859375 -1.394531 4.972656 -2.296875 C 4.085938 -3.195312 3.40625 -4.3125 2.925781 -5.648438 C 2.445312 -6.984375 2.203125 -8.503906 2.203125 -10.214844 C 2.203125 -11.953125 2.453125 -13.5 2.949219 -14.851562 C 3.441406 -16.199219 4.117188 -17.332031 4.972656 -18.246094 C 5.828125 -19.164062 6.832031 -19.859375 7.988281 -20.339844 C 9.140625 -20.820312 10.363281 -21.058594 11.65625 -21.058594 C 12.824219 -21.058594 13.921875 -20.863281 14.941406 -20.476562 C 15.960938 -20.085938 16.84375 -19.492188 17.59375 -18.699219 C 18.34375 -17.902344 18.9375 -16.890625 19.371094 -15.660156 C 19.808594 -14.429688 20.023438 -12.976562 20.023438 -11.296875 C 20.023438 -11.054688 20.015625 -10.808594 20.003906 -10.550781 C 19.988281 -10.296875 19.964844 -10.050781 19.933594 -9.808594 L 5.308594 -9.808594 C 5.371094 -8.488281 5.59375 -7.34375 5.984375 -6.367188 C 6.375 -5.390625 6.886719 -4.597656 7.515625 -3.984375 C 8.144531 -3.367188 8.871094 -2.910156 9.699219 -2.609375 C 10.523438 -2.308594 11.398438 -2.160156 12.328125 -2.160156 C 13.050781 -2.160156 13.726562 -2.242188 14.355469 -2.40625 C 14.984375 -2.574219 15.578125 -2.828125 16.132812 -3.171875 C 16.6875 -3.515625 17.191406 -3.945312 17.640625 -4.453125 L 19.441406 -2.699219 C 18.871094 -2.011719 18.21875 -1.425781 17.484375 -0.945312 C 16.746094 -0.464844 15.945312 -0.113281 15.074219 0.113281 C 14.203125 0.335938 13.261719 0.449219 12.238281 0.449219 Z M 5.445312 -12.328125 L 16.738281 -12.328125 C 16.738281 -13.289062 16.613281 -14.152344 16.359375 -14.917969 C 16.101562 -15.683594 15.742188 -16.34375 15.277344 -16.898438 C 14.8125 -17.453125 14.257812 -17.871094 13.613281 -18.15625 C 12.96875 -18.441406 12.238281 -18.585938 11.429688 -18.585938 C 10.710938 -18.585938 10.027344 -18.464844 9.382812 -18.226562 C 8.738281 -17.984375 8.144531 -17.601562 7.605469 -17.078125 C 7.066406 -16.550781 6.609375 -15.898438 6.234375 -15.121094 C 5.859375 -14.339844 5.59375 -13.410156 5.445312 -12.328125 Z M 5.445312 -12.328125 "/></g></g></g><g fill="#ffffff" fill-opacity="1"><g transform="translate(91.647173, 191.565866)"><g><path d="M 11.296875 0.449219 C 10.15625 0.449219 9.066406 0.328125 8.03125 0.0898438 C 6.996094 -0.148438 6.023438 -0.511719 5.109375 -0.988281 C 4.191406 -1.46875 3.34375 -2.070312 2.566406 -2.789062 L 4.363281 -5.851562 L 4.636719 -6.253906 L 4.90625 -6.074219 C 4.964844 -5.835938 5.03125 -5.585938 5.109375 -5.332031 C 5.183594 -5.078125 5.386719 -4.769531 5.714844 -4.410156 C 6.34375 -3.78125 7.101562 -3.261719 7.988281 -2.859375 C 8.871094 -2.453125 10.003906 -2.25 11.386719 -2.25 C 12.496094 -2.25 13.433594 -2.386719 14.199219 -2.65625 C 14.960938 -2.925781 15.554688 -3.308594 15.976562 -3.800781 C 16.394531 -4.296875 16.605469 -4.875 16.605469 -5.535156 C 16.605469 -5.984375 16.515625 -6.382812 16.335938 -6.726562 C 16.15625 -7.074219 15.863281 -7.394531 15.457031 -7.695312 C 15.050781 -7.996094 14.519531 -8.296875 13.859375 -8.59375 C 13.199219 -8.894531 12.390625 -9.195312 11.429688 -9.496094 C 9.871094 -9.945312 8.503906 -10.46875 7.335938 -11.070312 C 6.164062 -11.671875 5.265625 -12.367188 4.636719 -13.164062 C 4.003906 -13.957031 3.691406 -14.863281 3.691406 -15.886719 C 3.691406 -16.933594 3.976562 -17.84375 4.546875 -18.609375 C 5.113281 -19.371094 5.960938 -19.972656 7.085938 -20.40625 C 8.210938 -20.84375 9.601562 -21.058594 11.25 -21.058594 C 12.210938 -21.058594 13.078125 -20.992188 13.859375 -20.859375 C 14.640625 -20.722656 15.359375 -20.519531 16.019531 -20.25 C 16.679688 -19.980469 17.289062 -19.640625 17.84375 -19.238281 C 18.398438 -18.832031 18.929688 -18.359375 19.441406 -17.820312 L 17.59375 -15.570312 L 17.28125 -15.210938 L 17.054688 -15.433594 C 17.023438 -15.675781 16.957031 -15.90625 16.851562 -16.132812 C 16.746094 -16.359375 16.53125 -16.636719 16.199219 -16.964844 C 15.511719 -17.503906 14.730469 -17.917969 13.859375 -18.203125 C 12.988281 -18.488281 12.148438 -18.628906 11.339844 -18.628906 C 10.140625 -18.628906 9.105469 -18.421875 8.234375 -18 C 7.363281 -17.578125 6.929688 -16.933594 6.929688 -16.066406 C 6.929688 -15.613281 7.085938 -15.171875 7.402344 -14.738281 C 7.71875 -14.300781 8.296875 -13.867188 9.136719 -13.433594 C 9.976562 -12.996094 11.175781 -12.554688 12.734375 -12.105469 C 14.445312 -11.566406 15.816406 -11.015625 16.851562 -10.460938 C 17.886719 -9.90625 18.636719 -9.269531 19.101562 -8.550781 C 19.566406 -7.828125 19.800781 -6.976562 19.800781 -5.984375 C 19.800781 -4.84375 19.492188 -3.78125 18.878906 -2.789062 C 18.261719 -1.800781 17.324219 -1.011719 16.066406 -0.425781 C 14.804688 0.15625 13.214844 0.449219 11.296875 0.449219 Z M 11.296875 0.449219 "/></g></g></g><g fill="#ffffff" fill-opacity="1"><g transform="translate(112.797146, 191.565866)"><g><path d="M 11.296875 0.449219 C 10.15625 0.449219 9.066406 0.328125 8.03125 0.0898438 C 6.996094 -0.148438 6.023438 -0.511719 5.109375 -0.988281 C 4.191406 -1.46875 3.34375 -2.070312 2.566406 -2.789062 L 4.363281 -5.851562 L 4.636719 -6.253906 L 4.90625 -6.074219 C 4.964844 -5.835938 5.03125 -5.585938 5.109375 -5.332031 C 5.183594 -5.078125 5.386719 -4.769531 5.714844 -4.410156 C 6.34375 -3.78125 7.101562 -3.261719 7.988281 -2.859375 C 8.871094 -2.453125 10.003906 -2.25 11.386719 -2.25 C 12.496094 -2.25 13.433594 -2.386719 14.199219 -2.65625 C 14.960938 -2.925781 15.554688 -3.308594 15.976562 -3.800781 C 16.394531 -4.296875 16.605469 -4.875 16.605469 -5.535156 C 16.605469 -5.984375 16.515625 -6.382812 16.335938 -6.726562 C 16.15625 -7.074219 15.863281 -7.394531 15.457031 -7.695312 C 15.050781 -7.996094 14.519531 -8.296875 13.859375 -8.59375 C 13.199219 -8.894531 12.390625 -9.195312 11.429688 -9.496094 C 9.871094 -9.945312 8.503906 -10.46875 7.335938 -11.070312 C 6.164062 -11.671875 5.265625 -12.367188 4.636719 -13.164062 C 4.003906 -13.957031 3.691406 -14.863281 3.691406 -15.886719 C 3.691406 -16.933594 3.976562 -17.84375 4.546875 -18.609375 C 5.113281 -19.371094 5.960938 -19.972656 7.085938 -20.40625 C 8.210938 -20.84375 9.601562 -21.058594 11.25 -21.058594 C 12.210938 -21.058594 13.078125 -20.992188 13.859375 -20.859375 C 14.640625 -20.722656 15.359375 -20.519531 16.019531 -20.25 C 16.679688 -19.980469 17.289062 -19.640625 17.84375 -19.238281 C 18.398438 -18.832031 18.929688 -18.359375 19.441406 -17.820312 L 17.59375 -15.570312 L 17.28125 -15.210938 L 17.054688 -15.433594 C 17.023438 -15.675781 16.957031 -15.90625 16.851562 -16.132812 C 16.746094 -16.359375 16.53125 -16.636719 16.199219 -16.964844 C 15.511719 -17.503906 14.730469 -17.917969 13.859375 -18.203125 C 12.988281 -18.488281 12.148438 -18.628906 11.339844 -18.628906 C 10.140625 -18.628906 9.105469 -18.421875 8.234375 -18 C 7.363281 -17.578125 6.929688 -16.933594 6.929688 -16.066406 C 6.929688 -15.613281 7.085938 -15.171875 7.402344 -14.738281 C 7.71875 -14.300781 8.296875 -13.867188 9.136719 -13.433594 C 9.976562 -12.996094 11.175781 -12.554688 12.734375 -12.105469 C 14.445312 -11.566406 15.816406 -11.015625 16.851562 -10.460938 C 17.886719 -9.90625 18.636719 -9.269531 19.101562 -8.550781 C 19.566406 -7.828125 19.800781 -6.976562 19.800781 -5.984375 C 19.800781 -4.84375 19.492188 -3.78125 18.878906 -2.789062 C 18.261719 -1.800781 17.324219 -1.011719 16.066406 -0.425781 C 14.804688 0.15625 13.214844 0.449219 11.296875 0.449219 Z M 11.296875 0.449219 "/></g></g></g><g fill="#ffffff" fill-opacity="1"><g transform="translate(133.947119, 191.565866)"><g><path d="M 4.5 0 L 4.5 -2.609375 L 9.765625 -2.609375 L 9.765625 -17.953125 L 4.769531 -17.953125 L 4.769531 -20.566406 L 13.003906 -20.566406 L 13.003906 -2.609375 L 17.820312 -2.609375 L 17.820312 0 Z M 11.203125 -24.886719 C 10.574219 -24.886719 10.035156 -25.109375 9.585938 -25.558594 C 9.136719 -26.011719 8.910156 -26.550781 8.910156 -27.179688 C 8.910156 -27.839844 9.128906 -28.394531 9.5625 -28.84375 C 9.996094 -29.296875 10.546875 -29.519531 11.203125 -29.519531 C 11.835938 -29.519531 12.382812 -29.289062 12.847656 -28.824219 C 13.3125 -28.359375 13.546875 -27.808594 13.546875 -27.179688 C 13.546875 -26.550781 13.3125 -26.011719 12.847656 -25.558594 C 12.382812 -25.109375 11.835938 -24.886719 11.203125 -24.886719 Z M 11.203125 -24.886719 "/></g></g></g><g fill="#ffffff" fill-opacity="1"><g transform="translate(155.097092, 191.565866)"><g><path d="M 11.25 0.359375 C 9.390625 0.359375 7.746094 -0.0976562 6.324219 -1.011719 C 4.898438 -1.925781 3.78125 -3.1875 2.96875 -4.792969 C 2.160156 -6.398438 1.753906 -8.234375 1.753906 -10.304688 C 1.753906 -12.40625 2.160156 -14.257812 2.96875 -15.863281 C 3.78125 -17.46875 4.898438 -18.726562 6.324219 -19.640625 C 7.746094 -20.558594 9.390625 -21.015625 11.25 -21.015625 C 13.109375 -21.015625 14.753906 -20.558594 16.175781 -19.640625 C 17.601562 -18.726562 18.71875 -17.46875 19.53125 -15.863281 C 20.339844 -14.257812 20.746094 -12.40625 20.746094 -10.304688 C 20.746094 -8.234375 20.339844 -6.398438 19.53125 -4.792969 C 18.71875 -3.1875 17.601562 -1.925781 16.175781 -1.011719 C 14.753906 -0.0976562 13.109375 0.359375 11.25 0.359375 Z M 11.25 -2.339844 C 12.449219 -2.339844 13.5 -2.683594 14.398438 -3.375 C 15.300781 -4.066406 16.011719 -5.011719 16.539062 -6.210938 C 17.0625 -7.410156 17.324219 -8.789062 17.324219 -10.351562 C 17.324219 -11.910156 17.0625 -13.289062 16.539062 -14.488281 C 16.011719 -15.691406 15.300781 -16.628906 14.398438 -17.300781 C 13.5 -17.976562 12.449219 -18.316406 11.25 -18.316406 C 10.078125 -18.316406 9.039062 -17.976562 8.121094 -17.300781 C 7.207031 -16.628906 6.488281 -15.691406 5.960938 -14.488281 C 5.4375 -13.289062 5.175781 -11.910156 5.175781 -10.351562 C 5.175781 -8.789062 5.4375 -7.410156 5.960938 -6.210938 C 6.488281 -5.011719 7.207031 -4.066406 8.121094 -3.375 C 9.039062 -2.683594 10.078125 -2.339844 11.25 -2.339844 Z M 11.25 -2.339844 "/></g></g></g><g fill="#ffffff" fill-opacity="1"><g transform="translate(176.247065, 191.565866)"><g/></g></g><g fill="#ffffff" fill-opacity="1"><g transform="translate(197.397038, 191.565866)"><g><path d="M 2.160156 0 L 2.160156 -28.035156 L 10.125 -28.035156 C 11.746094 -28.035156 13.140625 -27.871094 14.308594 -27.539062 C 15.480469 -27.210938 16.449219 -26.746094 17.210938 -26.144531 C 17.976562 -25.546875 18.539062 -24.824219 18.898438 -23.984375 C 19.261719 -23.144531 19.441406 -22.230469 19.441406 -21.238281 C 19.441406 -20.371094 19.28125 -19.515625 18.96875 -18.675781 C 18.652344 -17.835938 18.1875 -17.101562 17.574219 -16.46875 C 16.957031 -15.839844 16.199219 -15.359375 15.300781 -15.03125 C 16.078125 -14.761719 16.792969 -14.386719 17.4375 -13.90625 C 18.082031 -13.425781 18.636719 -12.863281 19.101562 -12.21875 C 19.566406 -11.574219 19.925781 -10.882812 20.183594 -10.148438 C 20.4375 -9.414062 20.566406 -8.65625 20.566406 -7.875 C 20.566406 -6.703125 20.355469 -5.632812 19.933594 -4.65625 C 19.515625 -3.683594 18.878906 -2.851562 18.023438 -2.160156 C 17.167969 -1.46875 16.078125 -0.9375 14.761719 -0.5625 C 13.441406 -0.1875 11.878906 0 10.078125 0 Z M 5.265625 -2.746094 L 10.621094 -2.746094 C 11.941406 -2.746094 13.09375 -2.917969 14.085938 -3.261719 C 15.074219 -3.609375 15.847656 -4.171875 16.402344 -4.949219 C 16.957031 -5.730469 17.234375 -6.765625 17.234375 -8.054688 C 17.234375 -9.164062 16.996094 -10.148438 16.515625 -11.003906 C 16.035156 -11.859375 15.261719 -12.53125 14.199219 -13.027344 C 13.132812 -13.523438 11.683594 -13.769531 9.855469 -13.769531 L 5.265625 -13.769531 Z M 5.265625 -16.425781 L 9.675781 -16.425781 C 11.324219 -16.425781 12.628906 -16.621094 13.589844 -17.011719 C 14.550781 -17.398438 15.238281 -17.933594 15.660156 -18.609375 C 16.078125 -19.28125 16.289062 -20.039062 16.289062 -20.878906 C 16.289062 -21.511719 16.175781 -22.09375 15.953125 -22.636719 C 15.726562 -23.175781 15.375 -23.648438 14.894531 -24.050781 C 14.414062 -24.457031 13.785156 -24.78125 13.003906 -25.019531 C 12.226562 -25.261719 11.28125 -25.378906 10.171875 -25.378906 L 5.265625 -25.378906 Z M 5.265625 -16.425781 "/></g></g></g><g fill="#ffffff" fill-opacity="1"><g transform="translate(218.547011, 191.565866)"><g><path d="M 9.945312 0.496094 C 9.136719 0.496094 8.371094 0.375 7.648438 0.136719 C 6.929688 -0.105469 6.277344 -0.472656 5.691406 -0.96875 C 5.109375 -1.460938 4.605469 -2.085938 4.183594 -2.835938 C 3.765625 -3.585938 3.441406 -4.484375 3.21875 -5.535156 C 2.992188 -6.585938 2.878906 -7.769531 2.878906 -9.089844 L 2.925781 -20.566406 L 6.074219 -20.566406 L 6.074219 -9.089844 C 6.074219 -7.800781 6.195312 -6.703125 6.433594 -5.804688 C 6.675781 -4.90625 7.011719 -4.183594 7.449219 -3.644531 C 7.882812 -3.105469 8.386719 -2.714844 8.953125 -2.476562 C 9.523438 -2.234375 10.125 -2.113281 10.753906 -2.113281 C 11.476562 -2.113281 12.164062 -2.257812 12.824219 -2.542969 C 13.484375 -2.828125 14.078125 -3.253906 14.601562 -3.824219 C 15.128906 -4.394531 15.539062 -5.128906 15.839844 -6.03125 C 16.140625 -6.929688 16.289062 -7.996094 16.289062 -9.226562 L 16.289062 -20.566406 L 19.441406 -20.566406 L 19.441406 -3.195312 C 19.441406 -2.65625 19.460938 -2.121094 19.507812 -1.597656 C 19.550781 -1.074219 19.679688 -0.539062 19.890625 0 L 16.785156 0 C 16.636719 -0.359375 16.53125 -0.710938 16.46875 -1.058594 C 16.410156 -1.402344 16.371094 -1.753906 16.359375 -2.113281 C 16.34375 -2.476562 16.335938 -2.820312 16.335938 -3.148438 C 16.003906 -2.578125 15.613281 -2.070312 15.164062 -1.621094 C 14.714844 -1.171875 14.210938 -0.789062 13.65625 -0.472656 C 13.101562 -0.15625 12.515625 0.0820312 11.902344 0.246094 C 11.289062 0.414062 10.636719 0.496094 9.945312 0.496094 Z M 9.945312 0.496094 "/></g></g></g><g fill="#ffffff" fill-opacity="1"><g transform="translate(239.696996, 191.565866)"><g><path d="M 12.824219 0.496094 C 11.324219 0.496094 9.945312 0.226562 8.683594 -0.316406 C 7.425781 -0.855469 6.335938 -1.605469 5.421875 -2.566406 C 4.507812 -3.523438 3.796875 -4.65625 3.285156 -5.960938 C 2.773438 -7.265625 2.519531 -8.699219 2.519531 -10.261719 C 2.519531 -11.789062 2.773438 -13.207031 3.285156 -14.511719 C 3.796875 -15.816406 4.507812 -16.949219 5.421875 -17.910156 C 6.335938 -18.871094 7.425781 -19.621094 8.683594 -20.160156 C 9.945312 -20.699219 11.308594 -20.96875 12.78125 -20.96875 C 14.460938 -20.96875 15.96875 -20.632812 17.300781 -19.957031 C 18.636719 -19.28125 19.726562 -18.34375 20.566406 -17.144531 L 18.539062 -15.164062 L 18.226562 -14.851562 L 18 -15.074219 C 18 -15.316406 17.949219 -15.539062 17.84375 -15.75 C 17.738281 -15.960938 17.503906 -16.246094 17.144531 -16.605469 C 16.484375 -17.203125 15.78125 -17.625 15.03125 -17.863281 C 14.28125 -18.105469 13.410156 -18.226562 12.421875 -18.226562 C 11.550781 -18.226562 10.726562 -18.046875 9.945312 -17.683594 C 9.164062 -17.324219 8.46875 -16.808594 7.851562 -16.132812 C 7.238281 -15.457031 6.75 -14.640625 6.390625 -13.679688 C 6.03125 -12.71875 5.851562 -11.65625 5.851562 -10.484375 C 5.851562 -9.316406 6.03125 -8.242188 6.390625 -7.265625 C 6.75 -6.292969 7.246094 -5.445312 7.875 -4.726562 C 8.503906 -4.003906 9.261719 -3.441406 10.148438 -3.039062 C 11.03125 -2.632812 11.984375 -2.429688 13.003906 -2.429688 C 13.695312 -2.429688 14.355469 -2.527344 14.984375 -2.722656 C 15.613281 -2.917969 16.214844 -3.203125 16.785156 -3.578125 C 17.355469 -3.953125 17.878906 -4.410156 18.359375 -4.949219 L 20.25 -2.746094 C 19.230469 -1.664062 18.097656 -0.855469 16.851562 -0.316406 C 15.609375 0.226562 14.265625 0.496094 12.824219 0.496094 Z M 12.824219 0.496094 "/></g></g></g><g fill="#ffffff" fill-opacity="1"><g transform="translate(260.846982, 191.565866)"><g><path d="M 3.285156 -29.925781 L 6.839844 -29.925781 L 6.839844 -29.609375 C 6.660156 -29.429688 6.546875 -29.234375 6.503906 -29.023438 C 6.457031 -28.816406 6.433594 -28.453125 6.433594 -27.945312 L 6.433594 -16.921875 C 6.976562 -17.761719 7.613281 -18.488281 8.347656 -19.101562 C 9.082031 -19.71875 9.863281 -20.199219 10.6875 -20.542969 C 11.511719 -20.886719 12.34375 -21.058594 13.183594 -21.058594 C 14.414062 -21.058594 15.503906 -20.773438 16.449219 -20.203125 C 17.390625 -19.636719 18.128906 -18.71875 18.652344 -17.460938 C 19.175781 -16.199219 19.441406 -14.535156 19.441406 -12.464844 L 19.441406 0 L 16.289062 0 L 16.289062 -12.375 C 16.289062 -13.816406 16.125 -14.960938 15.796875 -15.816406 C 15.464844 -16.671875 15.015625 -17.289062 14.445312 -17.664062 C 13.875 -18.039062 13.230469 -18.226562 12.511719 -18.226562 C 11.96875 -18.226562 11.414062 -18.136719 10.84375 -17.953125 C 10.273438 -17.773438 9.726562 -17.503906 9.203125 -17.144531 C 8.675781 -16.785156 8.203125 -16.34375 7.785156 -15.816406 C 7.363281 -15.292969 7.035156 -14.699219 6.796875 -14.039062 C 6.554688 -13.378906 6.433594 -12.644531 6.433594 -11.835938 L 6.433594 0 L 3.285156 0 Z M 3.285156 -29.925781 "/></g></g></g><g fill="#ffffff" fill-opacity="1"><g transform="translate(281.996967, 191.565866)"><g><path d="M 12.238281 0.449219 C 10.738281 0.449219 9.375 0.21875 8.144531 -0.246094 C 6.914062 -0.710938 5.859375 -1.394531 4.972656 -2.296875 C 4.085938 -3.195312 3.40625 -4.3125 2.925781 -5.648438 C 2.445312 -6.984375 2.203125 -8.503906 2.203125 -10.214844 C 2.203125 -11.953125 2.453125 -13.5 2.949219 -14.851562 C 3.441406 -16.199219 4.117188 -17.332031 4.972656 -18.246094 C 5.828125 -19.164062 6.832031 -19.859375 7.988281 -20.339844 C 9.140625 -20.820312 10.363281 -21.058594 11.65625 -21.058594 C 12.824219 -21.058594 13.921875 -20.863281 14.941406 -20.476562 C 15.960938 -20.085938 16.84375 -19.492188 17.59375 -18.699219 C 18.34375 -17.902344 18.9375 -16.890625 19.371094 -15.660156 C 19.808594 -14.429688 20.023438 -12.976562 20.023438 -11.296875 C 20.023438 -11.054688 20.015625 -10.808594 20.003906 -10.550781 C 19.988281 -10.296875 19.964844 -10.050781 19.933594 -9.808594 L 5.308594 -9.808594 C 5.371094 -8.488281 5.59375 -7.34375 5.984375 -6.367188 C 6.375 -5.390625 6.886719 -4.597656 7.515625 -3.984375 C 8.144531 -3.367188 8.871094 -2.910156 9.699219 -2.609375 C 10.523438 -2.308594 11.398438 -2.160156 12.328125 -2.160156 C 13.050781 -2.160156 13.726562 -2.242188 14.355469 -2.40625 C 14.984375 -2.574219 15.578125 -2.828125 16.132812 -3.171875 C 16.6875 -3.515625 17.191406 -3.945312 17.640625 -4.453125 L 19.441406 -2.699219 C 18.871094 -2.011719 18.21875 -1.425781 17.484375 -0.945312 C 16.746094 -0.464844 15.945312 -0.113281 15.074219 0.113281 C 14.203125 0.335938 13.261719 0.449219 12.238281 0.449219 Z M 5.445312 -12.328125 L 16.738281 -12.328125 C 16.738281 -13.289062 16.613281 -14.152344 16.359375 -14.917969 C 16.101562 -15.683594 15.742188 -16.34375 15.277344 -16.898438 C 14.8125 -17.453125 14.257812 -17.871094 13.613281 -18.15625 C 12.96875 -18.441406 12.238281 -18.585938 11.429688 -18.585938 C 10.710938 -18.585938 10.027344 -18.464844 9.382812 -18.226562 C 8.738281 -17.984375 8.144531 -17.601562 7.605469 -17.078125 C 7.066406 -16.550781 6.609375 -15.898438 6.234375 -15.121094 C 5.859375 -14.339844 5.59375 -13.410156 5.445312 -12.328125 Z M 5.445312 -12.328125 "/></g></g></g><g fill="#ffffff" fill-opacity="1"><g transform="translate(303.146952, 191.565866)"><g><path d="M 5.355469 -20.566406 L 8.730469 -20.566406 L 8.59375 -14.578125 L 8.191406 -15.253906 C 8.371094 -16.183594 8.683594 -17.011719 9.136719 -17.730469 C 9.585938 -18.449219 10.125 -19.058594 10.753906 -19.550781 C 11.386719 -20.046875 12.074219 -20.421875 12.824219 -20.675781 C 13.574219 -20.933594 14.355469 -21.058594 15.164062 -21.058594 C 16.246094 -21.058594 17.242188 -20.871094 18.15625 -20.496094 C 19.074219 -20.121094 19.890625 -19.558594 20.609375 -18.808594 L 19.171875 -16.289062 L 18.988281 -15.886719 L 18.675781 -16.066406 C 18.613281 -16.304688 18.523438 -16.53125 18.40625 -16.738281 C 18.285156 -16.949219 18.03125 -17.203125 17.640625 -17.503906 C 17.160156 -17.804688 16.71875 -18.007812 16.3125 -18.113281 C 15.90625 -18.21875 15.449219 -18.269531 14.941406 -18.269531 C 14.191406 -18.269531 13.441406 -18.128906 12.691406 -17.84375 C 11.941406 -17.558594 11.257812 -17.113281 10.640625 -16.515625 C 10.027344 -15.914062 9.539062 -15.148438 9.179688 -14.21875 C 8.820312 -13.289062 8.640625 -12.179688 8.640625 -10.890625 L 8.640625 0.046875 L 5.355469 0.046875 Z M 5.355469 -20.566406 "/></g></g></g><g fill="#ffffff" fill-opacity="1"><g transform="translate(324.296937, 191.565866)"><g><path d="M 4.5 0 L 4.5 -2.609375 L 9.765625 -2.609375 L 9.765625 -17.953125 L 4.769531 -17.953125 L 4.769531 -20.566406 L 13.003906 -20.566406 L 13.003906 -2.609375 L 17.820312 -2.609375 L 17.820312 0 Z M 11.203125 -24.886719 C 10.574219 -24.886719 10.035156 -25.109375 9.585938 -25.558594 C 9.136719 -26.011719 8.910156 -26.550781 8.910156 -27.179688 C 8.910156 -27.839844 9.128906 -28.394531 9.5625 -28.84375 C 9.996094 -29.296875 10.546875 -29.519531 11.203125 -29.519531 C 11.835938 -29.519531 12.382812 -29.289062 12.847656 -28.824219 C 13.3125 -28.359375 13.546875 -27.808594 13.546875 -27.179688 C 13.546875 -26.550781 13.3125 -26.011719 12.847656 -25.558594 C 12.382812 -25.109375 11.835938 -24.886719 11.203125 -24.886719 Z M 11.203125 -24.886719 "/></g></g></g><g clip-path="url(#c5202429f6)"><path fill="#fbfaf9" d="M 57.050781 221.089844 L 317.933594 221.089844 L 317.933594 245.910156 L 57.050781 245.910156 Z M 57.050781 221.089844 " fill-opacity="1" fill-rule="nonzero"/></g><g fill="#060606" fill-opacity="1"><g transform="translate(103.480456, 236.944247)"><g><path d="M 1.5 0 L 0.21875 -7.988281 L 1.050781 -7.988281 L 1.910156 -2.589844 L 3.195312 -7.398438 L 3.476562 -7.398438 L 4.769531 -2.566406 L 5.5 -7.988281 L 6.257812 -7.988281 L 4.988281 0 L 4.644531 0 L 3.269531 -5.21875 L 1.871094 0 Z M 1.5 0 "/></g></g></g><g fill="#060606" fill-opacity="1"><g transform="translate(116.947709, 236.944247)"><g><path d="M 0.757812 0 L 0.757812 -8.003906 L 5.65625 -8.003906 L 5.65625 -7.207031 L 1.601562 -7.207031 L 1.601562 -4.578125 L 4.949219 -4.578125 L 4.949219 -3.757812 L 1.601562 -3.757812 L 1.601562 -0.796875 L 5.617188 -0.796875 L 5.617188 0 Z M 0.757812 0 "/></g></g></g><g fill="#060606" fill-opacity="1"><g transform="translate(130.414963, 236.944247)"><g><path d="M 0.617188 0 L 0.617188 -7.988281 L 2.886719 -7.988281 C 3.347656 -7.988281 3.746094 -7.941406 4.078125 -7.847656 C 4.410156 -7.753906 4.6875 -7.621094 4.90625 -7.453125 C 5.125 -7.28125 5.285156 -7.074219 5.386719 -6.835938 C 5.488281 -6.597656 5.539062 -6.335938 5.539062 -6.054688 C 5.539062 -5.804688 5.496094 -5.5625 5.40625 -5.324219 C 5.316406 -5.082031 5.183594 -4.875 5.007812 -4.695312 C 4.832031 -4.515625 4.617188 -4.378906 4.359375 -4.285156 C 4.582031 -4.207031 4.785156 -4.101562 4.96875 -3.964844 C 5.152344 -3.824219 5.3125 -3.664062 5.445312 -3.480469 C 5.578125 -3.296875 5.679688 -3.101562 5.753906 -2.890625 C 5.824219 -2.683594 5.859375 -2.464844 5.859375 -2.246094 C 5.859375 -1.910156 5.800781 -1.605469 5.679688 -1.328125 C 5.5625 -1.050781 5.378906 -0.8125 5.136719 -0.617188 C 4.894531 -0.417969 4.582031 -0.265625 4.207031 -0.160156 C 3.832031 -0.0546875 3.386719 0 2.871094 0 Z M 1.5 -0.78125 L 3.027344 -0.78125 C 3.402344 -0.78125 3.730469 -0.832031 4.015625 -0.929688 C 4.296875 -1.027344 4.515625 -1.1875 4.675781 -1.410156 C 4.832031 -1.632812 4.910156 -1.929688 4.910156 -2.296875 C 4.910156 -2.613281 4.84375 -2.890625 4.707031 -3.136719 C 4.570312 -3.378906 4.351562 -3.570312 4.046875 -3.710938 C 3.742188 -3.855469 3.332031 -3.925781 2.808594 -3.925781 L 1.5 -3.925781 Z M 1.5 -4.679688 L 2.757812 -4.679688 C 3.226562 -4.679688 3.597656 -4.738281 3.875 -4.847656 C 4.148438 -4.960938 4.34375 -5.109375 4.464844 -5.304688 C 4.582031 -5.496094 4.644531 -5.710938 4.644531 -5.949219 C 4.644531 -6.128906 4.609375 -6.296875 4.546875 -6.449219 C 4.480469 -6.605469 4.382812 -6.738281 4.246094 -6.855469 C 4.109375 -6.96875 3.929688 -7.0625 3.707031 -7.128906 C 3.484375 -7.199219 3.214844 -7.234375 2.898438 -7.234375 L 1.5 -7.234375 Z M 1.5 -4.679688 "/></g></g></g><g fill="#060606" fill-opacity="1"><g transform="translate(143.882217, 236.944247)"><g/></g></g><g fill="#060606" fill-opacity="1"><g transform="translate(157.349469, 236.944247)"><g><path d="M 0.691406 0.0117188 L 0.691406 -7.988281 L 2.550781 -7.988281 C 3.015625 -7.988281 3.402344 -7.945312 3.71875 -7.863281 C 4.035156 -7.777344 4.304688 -7.65625 4.527344 -7.496094 C 4.75 -7.339844 4.945312 -7.140625 5.117188 -6.898438 C 5.296875 -6.660156 5.445312 -6.390625 5.558594 -6.09375 C 5.675781 -5.792969 5.761719 -5.464844 5.816406 -5.109375 C 5.871094 -4.757812 5.898438 -4.367188 5.898438 -3.949219 C 5.875 -3.335938 5.792969 -2.78125 5.65625 -2.296875 C 5.519531 -1.808594 5.3125 -1.394531 5.039062 -1.050781 C 4.765625 -0.710938 4.414062 -0.445312 3.980469 -0.261719 C 3.550781 -0.078125 3.023438 0.0117188 2.398438 0.0117188 Z M 1.539062 -0.691406 L 2.359375 -0.691406 C 2.976562 -0.691406 3.476562 -0.816406 3.867188 -1.066406 C 4.253906 -1.3125 4.542969 -1.675781 4.734375 -2.15625 C 4.921875 -2.632812 5.011719 -3.214844 5 -3.898438 C 5 -4.601562 4.917969 -5.199219 4.746094 -5.695312 C 4.574219 -6.191406 4.308594 -6.570312 3.945312 -6.835938 C 3.582031 -7.101562 3.097656 -7.234375 2.5 -7.234375 L 1.539062 -7.234375 Z M 1.539062 -0.691406 "/></g></g></g><g fill="#060606" fill-opacity="1"><g transform="translate(170.816721, 236.944247)"><g><path d="M 0.757812 0 L 0.757812 -8.003906 L 5.65625 -8.003906 L 5.65625 -7.207031 L 1.601562 -7.207031 L 1.601562 -4.578125 L 4.949219 -4.578125 L 4.949219 -3.757812 L 1.601562 -3.757812 L 1.601562 -0.796875 L 5.617188 -0.796875 L 5.617188 0 Z M 0.757812 0 "/></g></g></g><g fill="#060606" fill-opacity="1"><g transform="translate(184.283973, 236.944247)"><g><path d="M 3.039062 0.0507812 L 0.320312 -8.003906 L 1.257812 -8.003906 L 3.308594 -1.859375 L 5.246094 -7.988281 L 6.128906 -7.988281 L 3.449219 0.0507812 Z M 3.039062 0.0507812 "/></g></g></g><g fill="#060606" fill-opacity="1"><g transform="translate(197.751225, 236.944247)"><g><path d="M 0.757812 0 L 0.757812 -8.003906 L 5.65625 -8.003906 L 5.65625 -7.207031 L 1.601562 -7.207031 L 1.601562 -4.578125 L 4.949219 -4.578125 L 4.949219 -3.757812 L 1.601562 -3.757812 L 1.601562 -0.796875 L 5.617188 -0.796875 L 5.617188 0 Z M 0.757812 0 "/></g></g></g><g fill="#060606" fill-opacity="1"><g transform="translate(211.218483, 236.944247)"><g><path d="M 0.847656 -7.988281 L 1.898438 -7.988281 L 1.898438 -7.898438 C 1.847656 -7.847656 1.816406 -7.792969 1.800781 -7.734375 C 1.789062 -7.671875 1.78125 -7.570312 1.78125 -7.425781 L 1.78125 -0.769531 L 5.628906 -0.769531 L 5.628906 0 L 0.847656 0 Z M 0.847656 -7.988281 "/></g></g></g><g fill="#060606" fill-opacity="1"><g transform="translate(224.685741, 236.944247)"><g><path d="M 3.207031 0.140625 C 2.597656 0.140625 2.082031 -0.015625 1.65625 -0.332031 C 1.226562 -0.648438 0.902344 -1.113281 0.679688 -1.726562 C 0.457031 -2.335938 0.347656 -3.078125 0.347656 -3.949219 C 0.347656 -4.796875 0.457031 -5.527344 0.679688 -6.136719 C 0.902344 -6.75 1.226562 -7.21875 1.65625 -7.546875 C 2.082031 -7.875 2.597656 -8.042969 3.207031 -8.042969 C 3.820312 -8.042969 4.339844 -7.875 4.765625 -7.546875 C 5.1875 -7.21875 5.511719 -6.75 5.734375 -6.136719 C 5.953125 -5.527344 6.066406 -4.796875 6.066406 -3.949219 C 6.066406 -3.078125 5.953125 -2.335938 5.734375 -1.726562 C 5.511719 -1.113281 5.1875 -0.648438 4.765625 -0.332031 C 4.339844 -0.015625 3.820312 0.140625 3.207031 0.140625 Z M 3.207031 -0.640625 C 3.617188 -0.640625 3.964844 -0.769531 4.25 -1.027344 C 4.539062 -1.28125 4.757812 -1.65625 4.910156 -2.148438 C 5.066406 -2.640625 5.144531 -3.242188 5.144531 -3.949219 C 5.144531 -4.625 5.066406 -5.210938 4.910156 -5.699219 C 4.757812 -6.191406 4.539062 -6.574219 4.25 -6.847656 C 3.964844 -7.121094 3.617188 -7.257812 3.207031 -7.257812 C 2.804688 -7.257812 2.457031 -7.121094 2.167969 -6.847656 C 1.875 -6.574219 1.65625 -6.191406 1.5 -5.699219 C 1.347656 -5.210938 1.269531 -4.625 1.269531 -3.949219 C 1.269531 -3.242188 1.347656 -2.640625 1.5 -2.148438 C 1.65625 -1.65625 1.875 -1.28125 2.167969 -1.027344 C 2.457031 -0.769531 2.804688 -0.640625 3.207031 -0.640625 Z M 3.207031 -0.640625 "/></g></g></g><g fill="#060606" fill-opacity="1"><g transform="translate(238.152999, 236.944247)"><g><path d="M 0.757812 0 L 0.757812 -7.988281 L 3.320312 -7.988281 C 3.921875 -7.988281 4.402344 -7.886719 4.769531 -7.683594 C 5.136719 -7.476562 5.410156 -7.207031 5.585938 -6.867188 C 5.761719 -6.53125 5.847656 -6.152344 5.847656 -5.734375 C 5.847656 -5.425781 5.800781 -5.136719 5.707031 -4.875 C 5.613281 -4.609375 5.464844 -4.375 5.265625 -4.167969 C 5.0625 -3.964844 4.808594 -3.804688 4.5 -3.695312 C 4.195312 -3.582031 3.820312 -3.527344 3.386719 -3.527344 L 1.679688 -3.527344 L 1.679688 0 Z M 1.679688 -4.320312 L 3.28125 -4.320312 C 3.675781 -4.320312 3.992188 -4.378906 4.230469 -4.496094 C 4.472656 -4.609375 4.648438 -4.773438 4.757812 -4.984375 C 4.871094 -5.191406 4.925781 -5.433594 4.925781 -5.707031 C 4.925781 -5.972656 4.871094 -6.210938 4.757812 -6.425781 C 4.648438 -6.640625 4.472656 -6.8125 4.230469 -6.945312 C 3.992188 -7.078125 3.679688 -7.144531 3.296875 -7.144531 L 1.679688 -7.144531 Z M 1.679688 -4.320312 "/></g></g></g><g fill="#060606" fill-opacity="1"><g transform="translate(251.620256, 236.944247)"><g><path d="M 0.757812 0 L 0.757812 -8.003906 L 5.65625 -8.003906 L 5.65625 -7.207031 L 1.601562 -7.207031 L 1.601562 -4.578125 L 4.949219 -4.578125 L 4.949219 -3.757812 L 1.601562 -3.757812 L 1.601562 -0.796875 L 5.617188 -0.796875 L 5.617188 0 Z M 0.757812 0 "/></g></g></g><g fill="#060606" fill-opacity="1"><g transform="translate(265.087514, 236.944247)"><g><path d="M 0.71875 0 L 0.71875 -7.988281 L 3.078125 -7.988281 C 3.710938 -7.988281 4.222656 -7.894531 4.609375 -7.707031 C 5 -7.519531 5.285156 -7.253906 5.464844 -6.914062 C 5.644531 -6.570312 5.734375 -6.167969 5.734375 -5.707031 C 5.734375 -5.40625 5.667969 -5.109375 5.535156 -4.808594 C 5.402344 -4.511719 5.214844 -4.25 4.96875 -4.027344 C 4.726562 -3.804688 4.4375 -3.652344 4.105469 -3.566406 L 5.949219 0 L 4.949219 0 L 3.179688 -3.527344 L 1.628906 -3.527344 L 1.628906 0 Z M 1.628906 -4.320312 L 3.179688 -4.320312 C 3.753906 -4.320312 4.167969 -4.449219 4.425781 -4.699219 C 4.679688 -4.953125 4.808594 -5.289062 4.808594 -5.707031 C 4.808594 -5.972656 4.753906 -6.214844 4.644531 -6.433594 C 4.53125 -6.648438 4.355469 -6.824219 4.117188 -6.949219 C 3.878906 -7.078125 3.566406 -7.144531 3.179688 -7.144531 L 1.628906 -7.144531 Z M 1.628906 -4.320312 "/></g></g></g></svg>