<svg xmlns="http://www.w3.org/2000/svg" xmlns:xlink="http://www.w3.org/1999/xlink" width="2534" zoomAndPan="magnify" viewBox="0 0 1900.5 1010.249974" height="1347" preserveAspectRatio="xMidYMid meet" version="1.0"><defs><g/><clipPath id="9200dc0cd1"><path d="M 0.457031 0 L 775.378906 0 L 775.378906 1009.5 L 0.457031 1009.5 Z M 0.457031 0 " clip-rule="nonzero"/></clipPath></defs><path fill="#ffffff" d="M 303.503906 346.417969 C 261.480469 346.417969 227.148438 307.945312 227.148438 260.59375 C 227.148438 248.164062 224.191406 229.816406 238.988281 229.816406 C 254.375 229.816406 250.824219 248.164062 250.824219 260.59375 C 250.824219 294.925781 274.5 322.742188 303.503906 322.742188 C 332.503906 322.742188 355.589844 294.925781 355.589844 260.59375 C 355.589844 246.980469 352.628906 228.042969 367.425781 228.042969 C 382.816406 228.042969 379.855469 246.980469 379.855469 260.59375 C 379.855469 307.945312 345.527344 346.417969 303.503906 346.417969 Z M 303.503906 346.417969 " fill-opacity="1" fill-rule="evenodd"/><path fill="#ffffff" d="M 238.988281 254.085938 C 234.84375 254.085938 230.109375 251.125 228.332031 247.574219 C 211.167969 213.835938 202.289062 146.953125 271.539062 131.5625 C 273.910156 130.972656 322.441406 119.726562 352.039062 145.175781 C 363.875 139.851562 378.671875 142.808594 382.222656 153.464844 C 405.308594 216.203125 373.9375 271.25 357.957031 246.390625 C 348.488281 232.777344 337.832031 219.164062 331.320312 213.246094 C 321.257812 219.753906 301.136719 226.859375 261.480469 227.449219 C 258.519531 235.144531 250.234375 254.085938 238.988281 254.085938 Z M 328.953125 187.203125 C 340.199219 187.203125 353.222656 200.222656 364.46875 215.019531 C 368.019531 196.671875 363.875 176.546875 361.507812 167.078125 C 359.734375 167.667969 349.078125 177.730469 340.792969 167.667969 C 321.851562 143.992188 228.332031 139.851562 241.355469 210.875 C 243.722656 206.140625 247.273438 203.773438 252.601562 203.773438 C 327.179688 204.957031 316.523438 187.203125 328.953125 187.203125 Z M 319.484375 192.527344 Z M 319.484375 192.527344 " fill-opacity="1" fill-rule="evenodd"/><path fill="#ffffff" d="M 302.910156 487.882812 C 191.636719 487.882812 101.078125 397.320312 101.078125 286.046875 C 101.078125 174.773438 191.636719 84.210938 302.910156 84.210938 C 414.1875 84.210938 504.746094 174.773438 504.746094 286.046875 C 504.746094 397.320312 414.1875 487.882812 302.910156 487.882812 Z M 302.910156 107.886719 C 205.25 107.886719 125.34375 187.792969 125.34375 286.046875 C 125.34375 383.707031 205.25 463.613281 302.910156 463.613281 C 401.164062 463.613281 481.070312 383.707031 481.070312 286.046875 C 481.070312 187.792969 401.164062 107.886719 302.910156 107.886719 Z M 302.910156 107.886719 " fill-opacity="1" fill-rule="evenodd"/><path fill="#ffffff" d="M 180.980469 442.898438 C 166.777344 442.898438 169.144531 427.507812 169.144531 419.222656 C 169.144531 367.136719 282.195312 333.988281 282.195312 365.953125 C 282.195312 378.972656 267.988281 377.789062 261.480469 377.789062 C 234.25 377.789062 192.820312 400.28125 192.820312 419.222656 C 192.820312 427.507812 195.1875 442.898438 180.980469 442.898438 Z M 425.433594 442.898438 C 410.042969 442.898438 413.59375 425.140625 413.003906 420.40625 C 409.453125 399.691406 370.386719 377.789062 344.933594 377.789062 C 337.832031 377.789062 324.21875 379.566406 324.21875 365.953125 C 324.21875 333.988281 433.71875 368.320312 437.269531 419.222656 C 437.863281 428.691406 438.453125 442.898438 425.433594 442.898438 Z M 425.433594 442.898438 " fill-opacity="1" fill-rule="evenodd"/><path fill="#ffffff" d="M 302.910156 421.589844 C 299.359375 421.589844 295.808594 419.8125 293.441406 416.855469 L 260.292969 373.054688 C 251.417969 360.625 270.355469 345.828125 279.828125 358.847656 L 302.910156 389.628906 C 318.300781 370.09375 329.546875 345.828125 343.160156 356.480469 C 348.488281 360.03125 349.671875 367.726562 345.527344 373.054688 L 312.972656 416.855469 C 310.605469 419.8125 307.054688 421.589844 302.910156 421.589844 Z M 302.910156 421.589844 " fill-opacity="1" fill-rule="evenodd"/><path fill="#ffffff" d="M 662.1875 364.769531 L 553.28125 364.769531 C 537.890625 364.769531 537.890625 341.09375 553.28125 341.09375 L 662.1875 341.09375 C 677.578125 341.09375 677.578125 364.769531 662.1875 364.769531 Z M 662.1875 364.769531 " fill-opacity="1" fill-rule="evenodd"/><path fill="#ffffff" d="M 662.1875 458.285156 L 553.28125 458.285156 C 537.890625 458.285156 537.890625 434.609375 553.28125 434.609375 L 662.1875 434.609375 C 677.578125 434.609375 677.578125 458.285156 662.1875 458.285156 Z M 662.1875 458.285156 " fill-opacity="1" fill-rule="evenodd"/><path fill="#ffffff" d="M 662.1875 271.839844 L 553.28125 271.839844 C 537.300781 271.839844 537.300781 247.574219 553.28125 247.574219 L 662.1875 247.574219 C 678.167969 247.574219 678.167969 271.839844 662.1875 271.839844 Z M 662.1875 271.839844 " fill-opacity="1" fill-rule="evenodd"/><path fill="#ffffff" d="M 662.1875 551.804688 L 301.726562 551.804688 C 286.339844 551.804688 286.339844 527.539062 301.726562 527.539062 L 662.1875 527.539062 C 677.578125 527.539062 677.578125 551.804688 662.1875 551.804688 Z M 180.390625 551.804688 L 113.507812 551.804688 C 97.523438 551.804688 97.523438 527.539062 113.507812 527.539062 L 180.390625 527.539062 C 196.371094 527.539062 196.371094 551.804688 180.390625 551.804688 Z M 180.390625 551.804688 " fill-opacity="1" fill-rule="evenodd"/><path fill="#ffffff" d="M 662.1875 645.324219 L 613.652344 645.324219 C 597.671875 645.324219 597.671875 621.058594 613.652344 621.058594 L 662.1875 621.058594 C 677.578125 621.058594 677.578125 645.324219 662.1875 645.324219 Z M 491.132812 645.324219 L 113.507812 645.324219 C 97.523438 645.324219 97.523438 621.058594 113.507812 621.058594 L 491.132812 621.058594 C 506.519531 621.058594 506.519531 645.324219 491.132812 645.324219 Z M 491.132812 645.324219 " fill-opacity="1" fill-rule="evenodd"/><path fill="#ffffff" d="M 662.1875 831.769531 L 613.652344 831.769531 C 597.671875 831.769531 597.671875 808.09375 613.652344 808.09375 L 662.1875 808.09375 C 677.578125 808.09375 677.578125 831.769531 662.1875 831.769531 Z M 491.132812 831.769531 L 113.507812 831.769531 C 97.523438 831.769531 97.523438 808.09375 113.507812 808.09375 L 491.132812 808.09375 C 506.519531 808.09375 506.519531 831.769531 491.132812 831.769531 Z M 491.132812 831.769531 " fill-opacity="1" fill-rule="evenodd"/><path fill="#ffffff" d="M 662.1875 738.25 L 301.726562 738.25 C 286.339844 738.25 286.339844 714.574219 301.726562 714.574219 L 662.1875 714.574219 C 677.578125 714.574219 677.578125 738.25 662.1875 738.25 Z M 180.390625 738.25 L 113.507812 738.25 C 97.523438 738.25 97.523438 714.574219 113.507812 714.574219 L 180.390625 714.574219 C 196.371094 714.574219 196.371094 738.25 180.390625 738.25 Z M 180.390625 738.25 " fill-opacity="1" fill-rule="evenodd"/><path fill="#ffffff" d="M 662.1875 925.289062 L 301.726562 925.289062 C 286.339844 925.289062 286.339844 901.019531 301.726562 901.019531 L 662.1875 901.019531 C 677.578125 901.019531 677.578125 925.289062 662.1875 925.289062 Z M 180.390625 925.289062 L 113.507812 925.289062 C 97.523438 925.289062 97.523438 901.019531 113.507812 901.019531 L 180.390625 901.019531 C 196.371094 901.019531 196.371094 925.289062 180.390625 925.289062 Z M 180.390625 925.289062 " fill-opacity="1" fill-rule="evenodd"/><g clip-path="url(#9200dc0cd1)"><path fill="#ffffff" d="M 704.804688 1009.335938 L 70.890625 1009.335938 C 32.417969 1009.335938 0.457031 977.964844 0.457031 938.902344 L 0.457031 70.597656 C 0.457031 31.535156 32.417969 0.164062 70.890625 0.164062 L 704.210938 0.164062 C 743.277344 0.164062 775.238281 31.535156 775.238281 70.597656 L 775.238281 938.902344 C 775.238281 977.964844 743.277344 1009.335938 704.804688 1009.335938 Z M 70.890625 23.839844 C 45.4375 23.839844 24.722656 44.554688 24.722656 70.597656 L 24.722656 938.902344 C 24.722656 964.351562 45.4375 985.660156 70.890625 985.660156 L 704.210938 985.660156 C 730.253906 985.660156 750.972656 964.945312 750.972656 938.902344 L 750.972656 70.597656 C 750.972656 44.554688 730.253906 23.839844 704.210938 23.839844 Z M 70.890625 23.839844 " fill-opacity="1" fill-rule="evenodd"/></g><g fill="#ffffff" fill-opacity="1"><g transform="translate(1109.756138, 456.845625)"><g><path d="M 5.238281 0 L 5.238281 -79.585938 L 12.261719 -79.585938 L 31.9375 -40.625 L 51.992188 -79.714844 L 58.761719 -79.714844 L 58.761719 0 L 50.332031 0 L 50.332031 -60.039062 L 33.085938 -27.976562 L 29.636719 -27.976562 L 13.542969 -59.65625 L 13.542969 0 Z M 5.238281 0 "/></g></g><g transform="translate(1173.628974, 456.845625)"><g><path d="M 28.105469 0 L 28.105469 -31.425781 L 3.578125 -79.585938 L 13.796875 -79.585938 L 33.339844 -41.007812 L 50.96875 -79.585938 L 60.421875 -79.585938 L 37.8125 -31.425781 L 37.8125 0 Z M 28.105469 0 "/></g></g></g><g fill="#ffffff" fill-opacity="1"><g transform="translate(1237.501811, 456.845625)"><g/></g></g><g fill="#ffffff" fill-opacity="1"><g transform="translate(1301.374647, 456.845625)"><g><path d="M 14.945312 0 L 2.171875 -79.585938 L 10.476562 -79.585938 L 19.035156 -25.804688 L 31.808594 -73.710938 L 34.617188 -73.710938 L 47.519531 -25.550781 L 54.804688 -79.585938 L 62.339844 -79.585938 L 49.691406 0 L 46.242188 0 L 32.574219 -51.992188 L 18.652344 0 Z M 14.945312 0 "/></g></g><g transform="translate(1365.247484, 456.845625)"><g><path d="M 31.9375 1.40625 C 25.890625 1.40625 20.738281 -0.171875 16.480469 -3.320312 C 12.222656 -6.472656 8.984375 -11.09375 6.769531 -17.183594 C 4.554688 -23.269531 3.449219 -30.660156 3.449219 -39.34375 C 3.449219 -47.777344 4.554688 -55.035156 6.769531 -61.125 C 8.984375 -67.214844 12.222656 -71.898438 16.480469 -75.179688 C 20.738281 -78.457031 25.890625 -80.097656 31.9375 -80.097656 C 38.066406 -80.097656 43.242188 -78.457031 47.457031 -75.179688 C 51.671875 -71.898438 54.886719 -67.214844 57.101562 -61.125 C 59.316406 -55.035156 60.421875 -47.777344 60.421875 -39.34375 C 60.421875 -30.660156 59.316406 -23.269531 57.101562 -17.183594 C 54.886719 -11.09375 51.671875 -6.472656 47.457031 -3.320312 C 43.242188 -0.171875 38.066406 1.40625 31.9375 1.40625 Z M 31.9375 -6.386719 C 36.023438 -6.386719 39.496094 -7.664062 42.347656 -10.21875 C 45.199219 -12.773438 47.394531 -16.5 48.925781 -21.398438 C 50.460938 -26.292969 51.226562 -32.277344 51.226562 -39.34375 C 51.226562 -46.074219 50.460938 -51.886719 48.925781 -56.78125 C 47.394531 -61.679688 45.199219 -65.492188 42.347656 -68.214844 C 39.496094 -70.941406 36.023438 -72.304688 31.9375 -72.304688 C 27.933594 -72.304688 24.484375 -70.941406 21.589844 -68.214844 C 18.695312 -65.492188 16.480469 -61.679688 14.945312 -56.78125 C 13.414062 -51.886719 12.648438 -46.074219 12.648438 -39.34375 C 12.648438 -32.277344 13.414062 -26.292969 14.945312 -21.398438 C 16.480469 -16.5 18.695312 -12.773438 21.589844 -10.21875 C 24.484375 -7.664062 27.933594 -6.386719 31.9375 -6.386719 Z M 31.9375 -6.386719 "/></g></g><g transform="translate(1429.120321, 456.845625)"><g><path d="M 7.152344 0 L 7.152344 -79.585938 L 30.660156 -79.585938 C 36.960938 -79.585938 42.050781 -78.648438 45.925781 -76.773438 C 49.800781 -74.902344 52.632812 -72.261719 54.417969 -68.855469 C 56.207031 -65.449219 57.101562 -61.445312 57.101562 -56.847656 C 57.101562 -53.867188 56.441406 -50.886719 55.121094 -47.90625 C 53.800781 -44.925781 51.929688 -42.328125 49.5 -40.113281 C 47.074219 -37.898438 44.199219 -36.363281 40.878906 -35.511719 L 59.273438 0 L 49.308594 0 L 31.679688 -35.128906 L 16.222656 -35.128906 L 16.222656 0 Z M 16.222656 -43.050781 L 31.679688 -43.050781 C 37.386719 -43.050781 41.515625 -44.304688 44.070312 -46.820312 C 46.628906 -49.332031 47.90625 -52.671875 47.90625 -56.847656 C 47.90625 -59.488281 47.351562 -61.894531 46.242188 -64.066406 C 45.136719 -66.234375 43.390625 -67.960938 41.007812 -69.238281 C 38.621094 -70.515625 35.511719 -71.15625 31.679688 -71.15625 L 16.222656 -71.15625 Z M 16.222656 -43.050781 "/></g></g><g transform="translate(1492.993157, 456.845625)"><g><path d="M 21.207031 -39.855469 L 14.945312 -32.957031 L 14.945312 0 L 5.367188 0 L 5.367188 -79.585938 L 16.097656 -79.585938 L 16.097656 -78.691406 C 15.585938 -78.179688 15.265625 -77.625 15.136719 -77.03125 C 15.011719 -76.433594 14.945312 -75.414062 14.945312 -73.964844 L 14.945312 -42.921875 L 48.160156 -80.222656 C 48.671875 -80.140625 49.183594 -80.054688 49.691406 -79.96875 C 50.203125 -79.882812 50.734375 -79.820312 51.289062 -79.777344 C 51.84375 -79.734375 52.417969 -79.691406 53.015625 -79.648438 C 53.609375 -79.605469 54.207031 -79.585938 54.804688 -79.585938 L 58.125 -79.585938 L 27.976562 -45.222656 L 60.167969 0 L 48.671875 0.511719 Z M 21.207031 -39.855469 "/></g></g></g><g fill="#ffffff" fill-opacity="1"><g transform="translate(1013.946888, 634.77709)"><g><path d="M 7.535156 0 L 7.535156 -79.714844 L 56.335938 -79.714844 L 56.335938 -71.792969 L 15.96875 -71.792969 L 15.96875 -45.605469 L 49.308594 -45.605469 L 49.308594 -37.429688 L 15.96875 -37.429688 L 15.96875 -7.921875 L 55.953125 -7.921875 L 55.953125 0 Z M 7.535156 0 "/></g></g><g transform="translate(1077.819724, 634.77709)"><g><path d="M 5.238281 0 L 26.953125 -40.625 L 5.621094 -79.714844 L 15.203125 -79.714844 L 31.9375 -49.4375 L 48.414062 -79.714844 L 57.359375 -79.714844 L 37.175781 -40.75 L 59.785156 0 L 49.691406 0 L 32.0625 -31.554688 L 14.945312 0 Z M 5.238281 0 "/></g></g><g transform="translate(1141.692561, 634.77709)"><g><path d="M 7.535156 0 L 7.535156 -79.585938 L 33.085938 -79.585938 C 39.046875 -79.585938 43.859375 -78.5625 47.519531 -76.519531 C 51.183594 -74.476562 53.886719 -71.773438 55.632812 -68.40625 C 57.378906 -65.042969 58.253906 -61.273438 58.253906 -57.101562 C 58.253906 -54.035156 57.785156 -51.183594 56.847656 -48.542969 C 55.910156 -45.902344 54.441406 -43.5625 52.441406 -41.515625 C 50.4375 -39.472656 47.90625 -37.898438 44.839844 -36.789062 C 41.773438 -35.683594 38.066406 -35.128906 33.726562 -35.128906 L 16.734375 -35.128906 L 16.734375 0 Z M 16.734375 -43.050781 L 32.703125 -43.050781 C 36.621094 -43.050781 39.773438 -43.625 42.15625 -44.773438 C 44.539062 -45.925781 46.285156 -47.542969 47.394531 -49.628906 C 48.5 -51.714844 49.054688 -54.121094 49.054688 -56.847656 C 49.054688 -59.488281 48.5 -61.871094 47.394531 -64 C 46.285156 -66.128906 44.539062 -67.855469 42.15625 -69.175781 C 39.773438 -70.496094 36.664062 -71.15625 32.832031 -71.15625 L 16.734375 -71.15625 Z M 16.734375 -43.050781 "/></g></g><g transform="translate(1205.565397, 634.77709)"><g><path d="M 7.535156 0 L 7.535156 -79.714844 L 56.335938 -79.714844 L 56.335938 -71.792969 L 15.96875 -71.792969 L 15.96875 -45.605469 L 49.308594 -45.605469 L 49.308594 -37.429688 L 15.96875 -37.429688 L 15.96875 -7.921875 L 55.953125 -7.921875 L 55.953125 0 Z M 7.535156 0 "/></g></g><g transform="translate(1269.438234, 634.77709)"><g><path d="M 7.152344 0 L 7.152344 -79.585938 L 30.660156 -79.585938 C 36.960938 -79.585938 42.050781 -78.648438 45.925781 -76.773438 C 49.800781 -74.902344 52.632812 -72.261719 54.417969 -68.855469 C 56.207031 -65.449219 57.101562 -61.445312 57.101562 -56.847656 C 57.101562 -53.867188 56.441406 -50.886719 55.121094 -47.90625 C 53.800781 -44.925781 51.929688 -42.328125 49.5 -40.113281 C 47.074219 -37.898438 44.199219 -36.363281 40.878906 -35.511719 L 59.273438 0 L 49.308594 0 L 31.679688 -35.128906 L 16.222656 -35.128906 L 16.222656 0 Z M 16.222656 -43.050781 L 31.679688 -43.050781 C 37.386719 -43.050781 41.515625 -44.304688 44.070312 -46.820312 C 46.628906 -49.332031 47.90625 -52.671875 47.90625 -56.847656 C 47.90625 -59.488281 47.351562 -61.894531 46.242188 -64.066406 C 45.136719 -66.234375 43.390625 -67.960938 41.007812 -69.238281 C 38.621094 -70.515625 35.511719 -71.15625 31.679688 -71.15625 L 16.222656 -71.15625 Z M 16.222656 -43.050781 "/></g></g><g transform="translate(1333.311071, 634.77709)"><g><path d="M 10.347656 0 L 10.347656 -7.535156 L 26.058594 -7.535156 L 26.058594 -72.046875 L 11.242188 -72.046875 L 11.242188 -79.585938 L 50.714844 -79.585938 L 50.714844 -72.046875 L 35.003906 -72.046875 L 35.003906 -7.410156 L 51.480469 -7.410156 L 51.480469 0 Z M 10.347656 0 "/></g></g><g transform="translate(1397.183907, 634.77709)"><g><path d="M 7.535156 0 L 7.535156 -79.714844 L 56.335938 -79.714844 L 56.335938 -71.792969 L 15.96875 -71.792969 L 15.96875 -45.605469 L 49.308594 -45.605469 L 49.308594 -37.429688 L 15.96875 -37.429688 L 15.96875 -7.921875 L 55.953125 -7.921875 L 55.953125 0 Z M 7.535156 0 "/></g></g><g transform="translate(1461.056744, 634.77709)"><g><path d="M 6.386719 -79.585938 L 15.074219 -79.585938 L 48.542969 -20.566406 L 48.542969 -79.585938 L 58.253906 -79.585938 L 58.253906 -78.691406 C 57.742188 -78.179688 57.421875 -77.625 57.292969 -77.03125 C 57.167969 -76.433594 57.101562 -75.414062 57.101562 -73.964844 L 57.101562 0 L 50.078125 0 L 14.945312 -62.59375 L 14.945312 0 L 6.386719 0 Z M 6.386719 -79.585938 "/></g></g><g transform="translate(1524.92958, 634.77709)"><g><path d="M 36.40625 1.277344 C 32.0625 1.277344 28.019531 0.488281 24.273438 -1.085938 C 20.523438 -2.660156 17.222656 -5.109375 14.371094 -8.429688 C 11.519531 -11.753906 9.28125 -15.96875 7.664062 -21.078125 C 6.046875 -26.1875 5.238281 -32.277344 5.238281 -39.34375 C 5.238281 -45.5625 5.832031 -50.992188 7.027344 -55.632812 C 8.21875 -60.273438 9.835938 -64.171875 11.878906 -67.320312 C 13.925781 -70.472656 16.265625 -72.984375 18.90625 -74.859375 C 21.546875 -76.734375 24.3125 -78.09375 27.210938 -78.945312 C 30.105469 -79.796875 33 -80.222656 35.898438 -80.222656 C 41.6875 -80.222656 46.628906 -78.796875 50.714844 -75.945312 C 54.804688 -73.09375 57.867188 -69.28125 59.914062 -64.511719 L 52.246094 -60.933594 L 51.097656 -60.421875 L 50.714844 -61.316406 C 50.96875 -62 50.96875 -62.617188 50.714844 -63.171875 C 50.460938 -63.722656 49.992188 -64.597656 49.308594 -65.789062 C 47.179688 -68.683594 44.988281 -70.621094 42.730469 -71.601562 C 40.472656 -72.582031 38.109375 -73.070312 35.640625 -73.070312 C 32.320312 -73.070312 29.316406 -72.324219 26.636719 -70.835938 C 23.953125 -69.34375 21.652344 -67.171875 19.738281 -64.320312 C 17.820312 -61.46875 16.371094 -57.996094 15.394531 -53.910156 C 14.414062 -49.820312 13.925781 -45.179688 13.925781 -39.984375 C 13.925781 -34.960938 14.5 -30.402344 15.648438 -26.316406 C 16.796875 -22.226562 18.375 -18.695312 20.375 -15.710938 C 22.375 -12.730469 24.71875 -10.433594 27.402344 -8.8125 C 30.085938 -7.195312 32.957031 -6.386719 36.023438 -6.386719 C 38.152344 -6.386719 40.21875 -6.769531 42.21875 -7.535156 C 44.222656 -8.304688 46.074219 -9.433594 47.777344 -10.921875 C 49.480469 -12.414062 50.929688 -14.136719 52.121094 -16.097656 L 58.761719 -11.753906 C 56.207031 -7.496094 53.140625 -4.257812 49.566406 -2.042969 C 45.988281 0.171875 41.601562 1.277344 36.40625 1.277344 Z M 36.40625 1.277344 "/></g></g><g transform="translate(1588.802417, 634.77709)"><g><path d="M 7.535156 0 L 7.535156 -79.714844 L 56.335938 -79.714844 L 56.335938 -71.792969 L 15.96875 -71.792969 L 15.96875 -45.605469 L 49.308594 -45.605469 L 49.308594 -37.429688 L 15.96875 -37.429688 L 15.96875 -7.921875 L 55.953125 -7.921875 L 55.953125 0 Z M 7.535156 0 "/></g></g></g></svg>