<svg xmlns="http://www.w3.org/2000/svg" xmlns:xlink="http://www.w3.org/1999/xlink" width="500" zoomAndPan="magnify" viewBox="0 0 375 374.999991" height="500" preserveAspectRatio="xMidYMid meet" version="1.0"><defs><clipPath id="df7013ed39"><path d="M 185 112.5 L 190 112.5 L 190 126 L 185 126 Z M 185 112.5 " clip-rule="nonzero"/></clipPath><clipPath id="e8975d6eaa"><path d="M 241 177 L 254.8125 177 L 254.8125 182 L 241 182 Z M 241 177 " clip-rule="nonzero"/></clipPath><clipPath id="a3b47bdd80"><path d="M 120.5625 177 L 134 177 L 134 182 L 120.5625 182 Z M 120.5625 177 " clip-rule="nonzero"/></clipPath><clipPath id="b21089c9c2"><path d="M 174 254 L 201 254 L 201 262.5 L 174 262.5 Z M 174 254 " clip-rule="nonzero"/></clipPath></defs><g clip-path="url(#df7013ed39)"><path fill="#ffffff" d="M 185.355469 114.675781 C 185.355469 113.511719 186.308594 112.558594 187.472656 112.558594 C 188.652344 112.558594 189.589844 113.511719 189.589844 114.675781 L 189.589844 122.984375 C 189.589844 124.148438 188.652344 125.101562 187.472656 125.101562 C 186.308594 125.101562 185.355469 124.148438 185.355469 122.984375 Z M 185.355469 114.675781 " fill-opacity="1" fill-rule="nonzero"/></g><path fill="#ffffff" d="M 218.046875 122.296875 C 218.628906 121.289062 219.921875 120.933594 220.929688 121.527344 C 221.949219 122.109375 222.292969 123.40625 221.710938 124.410156 L 217.554688 131.609375 C 216.972656 132.613281 215.675781 132.972656 214.671875 132.375 C 213.652344 131.792969 213.308594 130.496094 213.890625 129.492188 Z M 218.046875 122.296875 " fill-opacity="1" fill-rule="nonzero"/><path fill="#ffffff" d="M 242.53125 145.246094 C 243.550781 144.652344 244.847656 145.007812 245.429688 146.015625 C 246.011719 147.035156 245.667969 148.328125 244.648438 148.910156 L 237.464844 153.066406 C 236.445312 153.648438 235.148438 153.304688 234.566406 152.285156 C 233.984375 151.265625 234.328125 149.96875 235.347656 149.386719 Z M 242.53125 145.246094 " fill-opacity="1" fill-rule="nonzero"/><g clip-path="url(#e8975d6eaa)"><path fill="#ffffff" d="M 252.269531 177.355469 C 253.445312 177.355469 254.398438 178.304688 254.398438 179.46875 C 254.398438 180.648438 253.445312 181.585938 252.269531 181.585938 L 243.972656 181.585938 C 242.796875 181.585938 241.855469 180.648438 241.855469 179.46875 C 241.855469 178.304688 242.796875 177.355469 243.972656 177.355469 Z M 252.269531 177.355469 " fill-opacity="1" fill-rule="nonzero"/></g><path fill="#ffffff" d="M 244.648438 210.042969 C 245.667969 210.625 246.011719 211.921875 245.429688 212.925781 C 244.847656 213.945312 243.550781 214.289062 242.53125 213.707031 L 235.347656 209.550781 C 234.328125 208.96875 233.984375 207.675781 234.566406 206.667969 C 235.148438 205.648438 236.445312 205.304688 237.464844 205.886719 Z M 244.648438 210.042969 " fill-opacity="1" fill-rule="nonzero"/><path fill="#ffffff" d="M 132.414062 213.707031 C 131.410156 214.289062 130.113281 213.945312 129.53125 212.925781 C 128.9375 211.921875 129.292969 210.625 130.300781 210.042969 L 137.496094 205.886719 C 138.5 205.304688 139.796875 205.648438 140.378906 206.667969 C 140.972656 207.675781 140.617188 208.96875 139.613281 209.550781 Z M 132.414062 213.707031 " fill-opacity="1" fill-rule="nonzero"/><g clip-path="url(#a3b47bdd80)"><path fill="#ffffff" d="M 122.679688 181.585938 C 121.515625 181.585938 120.5625 180.648438 120.5625 179.46875 C 120.5625 178.304688 121.515625 177.355469 122.679688 177.355469 L 130.988281 177.355469 C 132.152344 177.355469 133.101562 178.304688 133.101562 179.46875 C 133.101562 180.648438 132.152344 181.585938 130.988281 181.585938 Z M 122.679688 181.585938 " fill-opacity="1" fill-rule="nonzero"/></g><path fill="#ffffff" d="M 130.300781 148.910156 C 129.292969 148.328125 128.9375 147.035156 129.53125 146.015625 C 130.113281 145.007812 131.410156 144.652344 132.414062 145.246094 L 139.613281 149.386719 C 140.617188 149.984375 140.972656 151.265625 140.378906 152.285156 C 139.796875 153.304688 138.5 153.648438 137.496094 153.066406 Z M 130.300781 148.910156 " fill-opacity="1" fill-rule="nonzero"/><path fill="#ffffff" d="M 153.25 124.410156 C 152.65625 123.40625 153.011719 122.109375 154.019531 121.527344 C 155.035156 120.933594 156.332031 121.289062 156.914062 122.296875 L 161.070312 129.492188 C 161.652344 130.496094 161.308594 131.792969 160.289062 132.375 C 159.269531 132.972656 157.972656 132.613281 157.390625 131.609375 Z M 153.25 124.410156 " fill-opacity="1" fill-rule="nonzero"/><path fill="#ffffff" d="M 185.34375 165.988281 C 184.457031 166.253906 183.519531 166.398438 182.578125 166.398438 C 179.90625 166.398438 177.472656 165.316406 175.714844 163.554688 C 173.96875 161.796875 172.867188 159.375 172.867188 156.691406 C 172.867188 154.003906 173.96875 151.582031 175.714844 149.824219 C 177.472656 148.066406 179.90625 146.980469 182.578125 146.980469 C 183.519531 146.980469 184.445312 147.125 185.34375 147.390625 L 185.34375 135.207031 C 174.152344 135.75 164.058594 140.5 156.636719 147.933594 C 149.058594 155.511719 144.253906 165.871094 143.886719 177.339844 L 158.460938 177.339844 C 159.109375 177.195312 159.8125 177.339844 160.355469 177.804688 C 160.777344 178.171875 161.027344 178.675781 161.070312 179.207031 L 161.070312 179.21875 C 161.082031 179.296875 161.09375 179.390625 161.09375 179.46875 C 161.09375 180.144531 160.777344 180.738281 160.300781 181.125 C 159.996094 181.535156 159.757812 181.984375 159.574219 182.460938 C 159.363281 183.054688 159.242188 183.703125 159.242188 184.363281 C 159.242188 185.871094 159.851562 187.234375 160.832031 188.226562 C 161.824219 189.207031 163.1875 189.828125 164.695312 189.828125 C 166.203125 189.828125 167.5625 189.207031 168.542969 188.226562 C 169.535156 187.234375 170.144531 185.871094 170.144531 184.363281 C 170.144531 183.714844 170.023438 183.082031 169.8125 182.5 C 169.613281 181.929688 169.308594 181.402344 168.941406 180.9375 C 168.570312 180.554688 168.34375 180.039062 168.34375 179.46875 C 168.34375 178.292969 169.308594 177.339844 170.472656 177.339844 L 185.34375 177.339844 Z M 206.019531 178.015625 C 206.378906 178.386719 206.601562 178.902344 206.601562 179.46875 C 206.601562 180.648438 205.648438 181.601562 204.472656 181.601562 L 189.601562 181.601562 L 189.601562 192.964844 C 190.503906 192.6875 191.429688 192.554688 192.367188 192.554688 C 195.054688 192.554688 197.472656 193.636719 199.234375 195.398438 C 200.992188 197.144531 202.078125 199.578125 202.078125 202.261719 C 202.078125 204.933594 200.992188 207.371094 199.234375 209.117188 C 197.472656 210.875 195.054688 211.960938 192.367188 211.960938 C 191.441406 211.960938 190.503906 211.828125 189.601562 211.550781 L 189.601562 232.664062 L 209.378906 232.664062 C 213.707031 221.257812 216.589844 216.257812 219.882812 210.558594 C 221.882812 207.105469 224.023438 203.386719 226.75 197.777344 C 228.164062 194.867188 229.261719 191.773438 230.003906 188.53125 C 230.519531 186.296875 230.851562 183.980469 231.007812 181.601562 L 216.484375 181.601562 C 215.847656 181.757812 215.136719 181.613281 214.605469 181.136719 C 214.167969 180.765625 213.929688 180.265625 213.878906 179.746094 L 213.878906 179.734375 C 213.863281 179.640625 213.863281 179.5625 213.863281 179.46875 C 213.863281 178.808594 214.167969 178.214844 214.660156 177.816406 C 214.964844 177.40625 215.199219 176.957031 215.371094 176.480469 C 215.597656 175.898438 215.71875 175.25 215.71875 174.574219 C 215.71875 173.066406 215.109375 171.703125 214.117188 170.726562 C 213.125 169.734375 211.761719 169.125 210.265625 169.125 C 208.757812 169.125 207.394531 169.734375 206.402344 170.726562 C 205.425781 171.703125 204.804688 173.066406 204.804688 174.574219 C 204.804688 175.222656 204.921875 175.859375 205.132812 176.453125 C 205.34375 177.007812 205.636719 177.539062 206.019531 178 Z M 189.601562 177.339844 L 200.96875 177.339844 C 200.6875 176.453125 200.558594 175.515625 200.558594 174.574219 C 200.558594 171.902344 201.640625 169.46875 203.402344 167.710938 C 205.148438 165.964844 207.582031 164.867188 210.265625 164.867188 C 212.9375 164.867188 215.371094 165.964844 217.121094 167.710938 C 218.878906 169.46875 219.964844 171.902344 219.964844 174.574219 C 219.964844 175.515625 219.832031 176.441406 219.554688 177.339844 L 231.074219 177.339844 C 230.707031 165.871094 225.902344 155.511719 218.324219 147.933594 C 210.886719 140.5 200.808594 135.75 189.601562 135.207031 L 189.601562 150.460938 C 189.761719 151.109375 189.617188 151.808594 189.140625 152.351562 C 188.769531 152.773438 188.265625 153.027344 187.75 153.066406 L 187.738281 153.066406 C 187.644531 153.078125 187.566406 153.09375 187.472656 153.09375 C 186.8125 153.09375 186.21875 152.773438 185.820312 152.296875 C 185.410156 151.992188 184.960938 151.757812 184.484375 151.570312 C 183.902344 151.359375 183.253906 151.238281 182.578125 151.238281 C 181.070312 151.238281 179.707031 151.847656 178.730469 152.828125 C 177.738281 153.820312 177.128906 155.183594 177.128906 156.691406 C 177.128906 158.199219 177.738281 159.5625 178.730469 160.539062 C 179.707031 161.53125 181.070312 162.140625 182.578125 162.140625 C 183.226562 162.140625 183.863281 162.019531 184.457031 161.808594 C 185.011719 161.609375 185.542969 161.308594 186.003906 160.9375 L 186.019531 160.9375 C 186.390625 160.566406 186.90625 160.339844 187.472656 160.339844 C 188.652344 160.339844 189.601562 161.308594 189.601562 162.472656 Z M 235.347656 179.351562 L 235.347656 179.46875 C 235.347656 179.535156 235.347656 179.601562 235.335938 179.65625 C 235.28125 183.015625 234.871094 186.308594 234.144531 189.484375 C 233.324219 193.03125 232.121094 196.429688 230.574219 199.617188 C 227.78125 205.386719 225.585938 209.167969 223.5625 212.6875 C 220.214844 218.46875 217.304688 223.496094 212.832031 235.519531 C 212.515625 236.378906 211.707031 236.910156 210.847656 236.910156 L 164.097656 236.910156 C 163.121094 236.910156 162.300781 236.246094 162.046875 235.347656 C 157.617188 223.441406 154.71875 218.441406 151.398438 212.6875 C 149.363281 209.167969 147.179688 205.386719 144.375 199.617188 C 142.828125 196.429688 141.621094 193.03125 140.816406 189.484375 C 140.074219 186.269531 139.664062 182.9375 139.613281 179.535156 L 139.613281 179.46875 C 139.613281 179.246094 139.597656 179.007812 139.597656 178.769531 C 139.597656 165.554688 144.96875 153.582031 153.621094 144.917969 C 162.285156 136.25 174.257812 130.894531 187.472656 130.894531 C 200.6875 130.894531 212.660156 136.25 221.324219 144.917969 C 229.992188 153.582031 235.347656 165.554688 235.347656 178.769531 Z M 188.941406 198.015625 C 188.558594 198.375 188.042969 198.597656 187.472656 198.597656 C 186.296875 198.597656 185.34375 197.644531 185.34375 196.46875 L 185.34375 181.601562 L 173.992188 181.601562 C 174.257812 182.5 174.402344 183.425781 174.402344 184.363281 C 174.402344 187.050781 173.320312 189.472656 171.558594 191.230469 C 169.800781 192.988281 167.367188 194.074219 164.695312 194.074219 C 162.007812 194.074219 159.585938 192.988281 157.828125 191.230469 C 156.070312 189.472656 154.984375 187.050781 154.984375 184.363281 C 154.984375 183.4375 155.128906 182.5 155.394531 181.601562 L 143.949219 181.601562 C 144.097656 183.980469 144.441406 186.296875 144.957031 188.53125 C 145.695312 191.773438 146.796875 194.867188 148.199219 197.777344 C 150.921875 203.386719 153.078125 207.105469 155.078125 210.558594 C 158.371094 216.257812 161.253906 221.257812 165.566406 232.664062 L 185.34375 232.664062 L 185.34375 208.480469 C 185.199219 207.847656 185.34375 207.132812 185.808594 206.601562 C 186.175781 206.164062 186.679688 205.925781 187.207031 205.875 L 187.222656 205.875 C 187.300781 205.863281 187.394531 205.863281 187.472656 205.863281 C 188.148438 205.863281 188.742188 206.164062 189.128906 206.65625 C 189.539062 206.960938 189.988281 207.199219 190.464844 207.371094 C 191.058594 207.59375 191.707031 207.714844 192.367188 207.714844 C 193.875 207.714844 195.238281 207.105469 196.230469 206.113281 C 197.210938 205.121094 197.832031 203.757812 197.832031 202.261719 C 197.832031 200.753906 197.210938 199.394531 196.230469 198.402344 C 195.238281 197.421875 193.875 196.800781 192.367188 196.800781 C 191.71875 196.800781 191.085938 196.917969 190.503906 197.128906 C 189.933594 197.34375 189.40625 197.632812 188.941406 198.015625 Z M 188.941406 198.015625 " fill-opacity="1" fill-rule="nonzero"/><path fill="#ffffff" d="M 167.777344 239.804688 L 207.171875 239.804688 C 208.441406 239.804688 209.484375 240.839844 209.484375 242.121094 C 209.484375 243.390625 208.441406 244.4375 207.171875 244.4375 L 167.777344 244.4375 C 166.507812 244.4375 165.460938 243.390625 165.460938 242.121094 C 165.460938 240.839844 166.507812 239.804688 167.777344 239.804688 Z M 167.777344 239.804688 " fill-opacity="1" fill-rule="evenodd"/><path fill="#ffffff" d="M 171.902344 247.054688 L 203.058594 247.054688 C 204.328125 247.054688 205.371094 248.085938 205.371094 249.371094 C 205.371094 250.640625 204.328125 251.6875 203.058594 251.6875 L 171.902344 251.6875 C 170.621094 251.6875 169.589844 250.640625 169.589844 249.371094 C 169.589844 248.085938 170.621094 247.054688 171.902344 247.054688 Z M 171.902344 247.054688 " fill-opacity="1" fill-rule="evenodd"/><g clip-path="url(#b21089c9c2)"><path fill="#ffffff" d="M 200.78125 254.292969 C 197.726562 259.214844 192.898438 262.386719 187.472656 262.386719 C 182.050781 262.386719 177.234375 259.214844 174.179688 254.292969 Z M 200.78125 254.292969 " fill-opacity="1" fill-rule="evenodd"/></g></svg>