<svg xmlns="http://www.w3.org/2000/svg" xmlns:xlink="http://www.w3.org/1999/xlink" width="500" zoomAndPan="magnify" viewBox="0 0 375 374.999991" height="500" preserveAspectRatio="xMidYMid meet" version="1.0"><defs><clipPath id="3ba37e6126"><path d="M 112.5 117.28125 L 262.5 117.28125 L 262.5 257.53125 L 112.5 257.53125 Z M 112.5 117.28125 " clip-rule="nonzero"/></clipPath></defs><path fill="#ffffff" d="M 164.105469 215.59375 C 164.105469 215.589844 164.109375 215.585938 164.109375 215.582031 C 164.109375 215.582031 164.109375 215.582031 164.113281 215.582031 C 167.742188 207.238281 168.539062 205.523438 168.710938 205.195312 C 168.84375 205.007812 168.921875 204.777344 168.921875 204.53125 C 168.921875 204.523438 168.921875 204.519531 168.921875 204.515625 C 168.921875 204.511719 168.921875 204.507812 168.921875 204.503906 C 168.914062 203.855469 168.386719 203.328125 167.734375 203.328125 L 145.273438 203.328125 C 144.398438 203.328125 144.390625 203.328125 139.601562 214.339844 C 134.832031 217.820312 134.328125 226.375 134.304688 226.742188 C 134.289062 227.070312 134.40625 227.386719 134.628906 227.625 C 134.855469 227.859375 135.167969 227.992188 135.492188 227.992188 L 157.957031 227.992188 C 158.585938 227.992188 159.109375 227.5 159.140625 226.871094 C 159.148438 226.789062 159.625 218.785156 163.671875 216.113281 C 163.71875 216.082031 163.753906 216.039062 163.792969 216.003906 C 163.824219 215.976562 163.855469 215.953125 163.878906 215.925781 C 163.96875 215.828125 164.050781 215.71875 164.105469 215.59375 Z M 146.003906 205.703125 L 165.878906 205.703125 C 165.15625 207.238281 164.046875 209.777344 162.238281 213.933594 L 142.367188 213.933594 C 144.636719 208.722656 145.601562 206.574219 146.003906 205.703125 Z M 156.871094 225.617188 L 136.796875 225.617188 C 137.148438 222.925781 138.273438 218.316406 140.945312 216.308594 L 160.117188 216.308594 C 157.863281 219.347656 157.109375 223.605469 156.871094 225.617188 Z M 156.871094 225.617188 " fill-opacity="1" fill-rule="nonzero"/><path fill="#ffffff" d="M 208.589844 210.273438 C 208.589844 210.277344 208.59375 210.28125 208.59375 210.285156 C 208.648438 210.410156 208.730469 210.519531 208.820312 210.617188 C 208.847656 210.644531 208.878906 210.667969 208.90625 210.695312 C 208.949219 210.730469 208.984375 210.773438 209.027344 210.800781 C 213.074219 213.472656 213.554688 221.480469 213.558594 221.558594 C 213.59375 222.191406 214.113281 222.683594 214.746094 222.683594 L 237.207031 222.683594 C 237.535156 222.683594 237.84375 222.550781 238.070312 222.3125 C 238.292969 222.078125 238.410156 221.757812 238.394531 221.433594 C 238.375 221.0625 237.871094 212.507812 233.101562 209.027344 C 228.308594 198.019531 228.300781 198.019531 227.425781 198.019531 L 204.964844 198.019531 C 204.308594 198.019531 203.777344 198.550781 203.777344 199.207031 C 203.777344 199.457031 203.855469 199.691406 203.992188 199.886719 C 204.160156 200.214844 204.960938 201.929688 208.589844 210.273438 Z M 235.894531 220.308594 L 215.828125 220.308594 C 215.589844 218.296875 214.835938 214.039062 212.582031 211 L 231.753906 211 C 234.617188 213.140625 235.589844 218.003906 235.894531 220.308594 Z M 226.695312 200.394531 C 227.097656 201.265625 228.0625 203.414062 230.332031 208.625 L 210.460938 208.625 C 208.65625 204.46875 207.546875 201.929688 206.824219 200.394531 Z M 226.695312 200.394531 " fill-opacity="1" fill-rule="nonzero"/><path fill="#ffffff" d="M 160.179688 233.585938 L 153.792969 230.210938 C 153.777344 230.203125 153.761719 230.207031 153.746094 230.199219 C 153.675781 230.164062 153.597656 230.152344 153.519531 230.132812 C 153.441406 230.113281 153.367188 230.085938 153.285156 230.085938 C 153.269531 230.082031 153.253906 230.074219 153.238281 230.074219 L 137.191406 230.074219 C 134.675781 230.074219 132.628906 232.121094 132.628906 234.632812 C 132.628906 237.148438 134.675781 239.195312 137.191406 239.195312 L 153.238281 239.195312 C 153.375 239.195312 153.515625 239.160156 153.648438 239.109375 C 153.675781 239.101562 153.703125 239.089844 153.730469 239.078125 C 153.75 239.070312 153.773438 239.066406 153.792969 239.054688 L 160.179688 235.683594 C 160.570312 235.480469 160.8125 235.074219 160.8125 234.632812 C 160.8125 234.195312 160.570312 233.789062 160.179688 233.585938 Z M 152.050781 236.816406 L 137.191406 236.816406 C 135.984375 236.816406 135.007812 235.839844 135.007812 234.632812 C 135.007812 233.429688 135.984375 232.449219 137.191406 232.449219 L 152.050781 232.449219 Z M 154.425781 236.035156 L 154.425781 233.230469 L 157.082031 234.632812 Z M 154.425781 236.035156 " fill-opacity="1" fill-rule="nonzero"/><path fill="#ffffff" d="M 226.8125 225.375 C 226.742188 225.34375 226.667969 225.332031 226.589844 225.3125 C 226.515625 225.296875 226.441406 225.277344 226.367188 225.273438 C 226.347656 225.273438 226.332031 225.261719 226.308594 225.265625 L 219.089844 225.421875 C 218.648438 225.429688 218.25 225.683594 218.050781 226.074219 C 217.855469 226.46875 217.890625 226.941406 218.148438 227.296875 L 222.351562 233.171875 C 222.359375 233.1875 222.375 233.191406 222.382812 233.203125 C 222.484375 233.335938 222.613281 233.449219 222.769531 233.53125 C 222.773438 233.535156 222.777344 233.542969 222.785156 233.542969 C 222.785156 233.542969 222.785156 233.542969 222.785156 233.546875 L 237.136719 240.730469 C 237.789062 241.054688 238.484375 241.210938 239.167969 241.210938 C 240.84375 241.210938 242.453125 240.289062 243.253906 238.695312 C 243.796875 237.605469 243.886719 236.367188 243.503906 235.210938 C 243.117188 234.058594 242.304688 233.121094 241.21875 232.574219 L 226.867188 225.390625 C 226.851562 225.382812 226.832031 225.382812 226.8125 225.375 Z M 224.390625 227.683594 L 223.136719 230.1875 L 221.390625 227.746094 Z M 241.25 235.960938 C 241.433594 236.515625 241.390625 237.105469 241.128906 237.628906 C 240.589844 238.707031 239.277344 239.144531 238.199219 238.605469 L 224.910156 231.953125 L 226.867188 228.046875 L 240.152344 234.699219 C 240.675781 234.960938 241.0625 235.40625 241.25 235.960938 Z M 241.25 235.960938 " fill-opacity="1" fill-rule="nonzero"/><g clip-path="url(#3ba37e6126)"><path fill="#ffffff" d="M 262.261719 245.972656 C 262.257812 245.832031 262.226562 245.699219 262.179688 245.566406 C 262.164062 245.535156 262.152344 245.503906 262.136719 245.46875 C 262.117188 245.433594 262.109375 245.394531 262.085938 245.359375 L 253.914062 232.035156 C 259.429688 229.019531 262.433594 222.832031 261.289062 216.527344 L 255.964844 187.246094 C 255.316406 183.675781 252.898438 180.765625 249.621094 179.421875 C 251.566406 176.613281 252.714844 173.214844 252.714844 169.546875 C 252.714844 159.960938 244.914062 152.160156 235.328125 152.160156 C 225.738281 152.160156 217.9375 159.960938 217.9375 169.550781 C 217.9375 177.636719 223.5 184.433594 230.992188 186.367188 C 230.015625 188.359375 229.582031 190.558594 229.742188 192.777344 C 229.535156 192.613281 229.28125 192.511719 229.007812 192.511719 L 212.277344 192.511719 L 208.9375 158.152344 C 208.878906 157.542969 208.367188 157.082031 207.753906 157.082031 L 173.359375 157.082031 C 172.734375 157.082031 172.210938 157.570312 172.175781 158.195312 L 171.414062 170.9375 C 171.183594 169.371094 170.96875 167.816406 170.761719 166.308594 C 169.882812 159.863281 169.160156 154.597656 167.582031 151.378906 C 174.171875 148.902344 178.882812 142.558594 178.882812 135.113281 C 178.882812 125.523438 171.082031 117.726562 161.496094 117.726562 C 151.90625 117.726562 144.109375 125.523438 144.109375 135.113281 C 144.109375 138.03125 144.839844 140.78125 146.117188 143.199219 C 140.707031 145.167969 137.304688 148.253906 135.769531 152.589844 C 128 154.320312 122.167969 161.261719 122.167969 169.550781 C 122.167969 173.21875 123.3125 176.617188 125.257812 179.425781 C 121.984375 180.769531 119.5625 183.679688 118.914062 187.246094 L 113.589844 216.527344 C 112.445312 222.832031 115.449219 229.019531 120.964844 232.039062 L 112.792969 245.359375 C 112.773438 245.394531 112.761719 245.433594 112.746094 245.46875 C 112.730469 245.503906 112.714844 245.535156 112.703125 245.570312 C 112.652344 245.699219 112.621094 245.835938 112.621094 245.972656 C 112.621094 245.976562 112.617188 245.980469 112.617188 245.980469 L 112.617188 256.082031 C 112.617188 256.738281 113.148438 257.269531 113.804688 257.269531 L 261.074219 257.269531 C 261.730469 257.269531 262.261719 256.738281 262.261719 256.082031 L 262.261719 245.980469 C 262.261719 245.976562 262.261719 245.976562 262.261719 245.972656 Z M 220.316406 169.550781 C 220.316406 161.273438 227.046875 154.539062 235.328125 154.539062 C 243.605469 154.539062 250.339844 161.273438 250.339844 169.550781 C 250.339844 177.828125 243.605469 184.5625 235.328125 184.5625 C 227.050781 184.5625 220.316406 177.828125 220.316406 169.550781 Z M 235.328125 186.9375 C 240.34375 186.9375 244.855469 184.789062 248.03125 181.382812 C 250.910156 182.273438 253.082031 184.667969 253.628906 187.667969 L 258.953125 216.953125 C 259.921875 222.277344 257.359375 227.5 252.671875 230.011719 L 233.019531 197.964844 L 232.25 193.71875 C 231.816406 191.332031 232.238281 188.914062 233.429688 186.828125 C 234.050781 186.898438 234.683594 186.9375 235.328125 186.9375 Z M 174.480469 159.457031 L 206.675781 159.457031 L 209.890625 192.511719 L 176.800781 192.511719 C 176.710938 192.035156 176.574219 191.566406 176.378906 191.117188 C 175.003906 187.894531 173.996094 184.417969 173.199219 180.875 Z M 161.496094 120.101562 C 169.773438 120.101562 176.507812 126.835938 176.507812 135.113281 C 176.507812 143.390625 169.773438 150.125 161.496094 150.125 C 153.21875 150.125 146.484375 143.390625 146.484375 135.113281 C 146.484375 126.835938 153.21875 120.101562 161.496094 120.101562 Z M 147.402344 145.257812 C 150.5625 149.636719 155.695312 152.5 161.496094 152.5 C 162.789062 152.5 164.050781 152.347656 165.265625 152.074219 C 166.796875 154.832031 167.550781 160.332031 168.410156 166.628906 C 169.050781 171.34375 169.757812 176.410156 170.882812 181.386719 C 170.882812 181.394531 170.882812 181.398438 170.882812 181.402344 C 171.710938 185.0625 172.753906 188.675781 174.195312 192.050781 C 174.675781 193.171875 174.660156 194.441406 174.148438 195.539062 C 173.640625 196.632812 172.722656 197.429688 171.5625 197.78125 C 169.425781 198.429688 167.136719 197.273438 166.351562 195.148438 C 163.601562 187.695312 162.066406 180.289062 161.773438 173.125 C 162.601562 169.398438 163.722656 165.824219 165.140625 162.429688 C 165.394531 161.824219 165.109375 161.128906 164.503906 160.875 C 163.898438 160.625 163.203125 160.910156 162.949219 161.511719 C 161.480469 165.023438 160.324219 168.710938 159.464844 172.554688 C 159.464844 172.5625 159.464844 172.570312 159.460938 172.574219 C 158.070312 178.816406 157.496094 185.488281 157.722656 192.507812 L 145.871094 192.507812 C 145.601562 192.507812 145.34375 192.609375 145.136719 192.773438 C 145.296875 190.558594 144.863281 188.359375 143.890625 186.367188 C 151.382812 184.429688 156.941406 177.636719 156.941406 169.546875 C 156.941406 159.960938 149.140625 152.160156 139.554688 152.160156 C 139.191406 152.160156 138.835938 152.191406 138.480469 152.214844 C 140.007812 149.074219 142.953125 146.789062 147.402344 145.257812 Z M 160.097656 192.511719 C 159.980469 188.976562 160.074219 185.535156 160.382812 182.199219 C 160.976562 185.609375 161.832031 189.054688 162.9375 192.511719 Z M 139.554688 154.539062 C 147.832031 154.539062 154.566406 161.273438 154.566406 169.550781 C 154.566406 177.828125 147.832031 184.5625 139.554688 184.5625 C 131.277344 184.5625 124.542969 177.828125 124.542969 169.550781 C 124.542969 161.273438 131.277344 154.539062 139.554688 154.539062 Z M 115.929688 216.953125 L 121.253906 187.671875 C 121.800781 184.667969 123.96875 182.273438 126.851562 181.386719 C 130.027344 184.792969 134.539062 186.9375 139.554688 186.9375 C 140.195312 186.9375 140.828125 186.898438 141.453125 186.828125 C 142.640625 188.917969 143.066406 191.332031 142.632812 193.71875 L 141.863281 197.96875 L 122.207031 230.011719 C 117.519531 227.5 114.960938 222.277344 115.929688 216.953125 Z M 144.007812 199.007812 C 144.011719 199.007812 144.011719 199.003906 144.011719 199.003906 L 146.539062 194.886719 L 163.746094 194.886719 C 163.875 195.246094 163.992188 195.609375 164.125 195.96875 C 165.113281 198.652344 167.648438 200.335938 170.351562 200.335938 C 170.984375 200.335938 171.625 200.246094 172.257812 200.050781 C 174.042969 199.507812 175.515625 198.230469 176.304688 196.539062 C 176.550781 196.011719 176.714844 195.453125 176.8125 194.886719 L 228.34375 194.886719 L 230.871094 199.003906 C 230.871094 199.003906 230.871094 199.007812 230.871094 199.007812 L 258.953125 244.792969 L 210.730469 244.792969 L 210.730469 235.007812 C 210.730469 234.996094 210.722656 234.988281 210.722656 234.980469 C 210.71875 234.875 210.703125 234.769531 210.667969 234.667969 L 210.648438 234.609375 C 210.636719 234.578125 210.628906 234.546875 210.617188 234.519531 L 204.722656 216.945312 C 204.5625 216.460938 204.109375 216.132812 203.597656 216.132812 L 171.28125 216.132812 C 170.769531 216.132812 170.316406 216.460938 170.15625 216.945312 L 164.261719 234.519531 C 164.25 234.546875 164.242188 234.578125 164.230469 234.609375 L 164.210938 234.667969 C 164.179688 234.769531 164.164062 234.875 164.15625 234.980469 C 164.15625 234.988281 164.152344 234.996094 164.152344 235.007812 L 164.152344 244.792969 L 115.929688 244.792969 Z M 208.355469 236.230469 L 208.355469 239.296875 L 166.527344 239.296875 L 166.527344 236.230469 Z M 166.527344 241.671875 L 208.355469 241.671875 L 208.355469 244.773438 L 166.527344 244.773438 Z M 167.003906 233.820312 L 172.136719 218.507812 L 202.746094 218.507812 L 207.878906 233.820312 Z M 114.992188 254.894531 L 114.992188 247.167969 L 259.886719 247.167969 L 259.886719 254.894531 Z M 114.992188 254.894531 " fill-opacity="1" fill-rule="nonzero"/></g></svg>